<svg xmlns="http://www.w3.org/2000/svg" xmlns:xlink="http://www.w3.org/1999/xlink" viewBox="0 0 228.38 82.9"><defs><style>.cls-1{isolation:isolate;}.cls-2{fill:#636c71;mix-blend-mode:multiply;}.cls-3{fill:url(#linear-gradient);}.cls-4{mix-blend-mode:screen;fill:url(#New_Gradient_Swatch_7);}.cls-5{fill:url(#linear-gradient-2);}.cls-6{fill:#1c4586;}</style><linearGradient id="linear-gradient" x1="353.35" y1="-316.94" x2="353.35" y2="-375.59" gradientTransform="matrix(0.99, -0.14, 0.14, 0.99, -187.21, 431.63)" gradientUnits="userSpaceOnUse"><stop offset="0" stop-color="#e5a713"/><stop offset="0.57" stop-color="#ffe600"/><stop offset="1" stop-color="#e9b010"/></linearGradient><linearGradient id="New_Gradient_Swatch_7" x1="353.35" y1="-344.81" x2="353.35" y2="-374.36" gradientTransform="matrix(0.99, -0.14, 0.14, 0.99, -187.21, 431.63)" gradientUnits="userSpaceOnUse"><stop offset="0" stop-color="#1f2020"/><stop offset="0.16" stop-color="#363526"/><stop offset="0.55" stop-color="#6b6335"/><stop offset="0.84" stop-color="#8d803e"/><stop offset="1" stop-color="#998b41"/></linearGradient><linearGradient id="linear-gradient-2" x1="62.16" y1="-71.84" x2="292.32" y2="-71.84" gradientTransform="matrix(1, -0.04, 0.04, 1, -59.52, 120.22)" xlink:href="#linear-gradient"/></defs><title>Asset 2</title><g class="cls-1"><g id="Layer_2" data-name="Layer 2"><g id="Layer_1-2" data-name="Layer 1"><path class="cls-2" d="M15.58,80.73c.3.59,1.53.78,2.75.43C82,62.83,148.86,59.8,211.45,72.18A2.43,2.43,0,0,0,214.12,70c-1.61,8.35,3.78-19.68,12.65-65.8a2.15,2.15,0,0,0-2.19-2.63C147.15.5,70.59,17.69,3.4,51c-1.29.64-2.08,1.65-1.78,2.24Q8.61,67,15.58,80.73Z"/><path class="cls-3" d="M14.2,80.78c.3.59,1.53.79,2.75.44,63.66-18.34,130.53-21.37,193.12-9a2.43,2.43,0,0,0,2.67-2.15c-1.61,8.35,3.78-19.68,12.65-65.8a2.14,2.14,0,0,0-2.19-2.62C145.77.56,69.2,17.74,2,51.07.73,51.71-.06,52.72.24,53.31Z"/><path class="cls-4" d="M7.45,67.5c.3.59,83.2-42.87,211.76-31.09-1.6,8.35-2.69,14,6.18-32.12a2.14,2.14,0,0,0-2.19-2.62C145.77.56,69.21,17.74,2,51.07.73,51.71-.06,52.72.24,53.31Z"/><path class="cls-5" d="M212.3,73.74a4.23,4.23,0,0,0,3.35-3.41c.29-1,12.65-65.8,12.65-65.8a3.74,3.74,0,0,0-.74-3.1,3.87,3.87,0,0,0-3-1.38,496.65,496.65,0,0,0-76.1,4.79A477.13,477.13,0,0,0,2.71,49.62,4.92,4.92,0,0,0,.13,52.2,2.27,2.27,0,0,0,.23,54l14,27.47c.56,1.11,2,1.65,3.74,1.41a5.84,5.84,0,0,0,.83-.18A421.44,421.44,0,0,1,76.47,70.35a402.66,402.66,0,0,1,134.68,3.36A3.18,3.18,0,0,0,212.3,73.74ZM148.93,7.93a493.13,493.13,0,0,1,75.63-4.76.71.71,0,0,1,.58.23.64.64,0,0,1,.1.54L212.58,69.77c-.12.59-.53.94-.83.88A405.68,405.68,0,0,0,76,67.26,424.59,424.59,0,0,0,17.9,79.66a2.69,2.69,0,0,1-1.07.09L3.24,53a3.17,3.17,0,0,1,.86-.59A474,474,0,0,1,148.93,7.93Z"/><path class="cls-6" d="M17.55,48.49c.4-.19.81-.22,1,.17a.75.75,0,0,1-.45,1.09c-.4.18-.82.21-1-.2A.73.73,0,0,1,17.55,48.49Zm-.12,2.34,1.34-.61,2.46,9.46-1.35.61Z"/><path class="cls-6" d="M21.13,50.9l1.3-.53.43,1.92h0a3.82,3.82,0,0,1,2.23-3.22,1.73,1.73,0,0,1,2.49,1,3.81,3.81,0,0,1,.22.75l1.23,5.56-1.36.57-1.06-4.78a7.13,7.13,0,0,0-.28-.92c-.25-.59-.73-.82-1.48-.51-1.77.73-1.7,2.67-1.35,4.23l.75,3.38-1.37.57Z"/><path class="cls-6" d="M35.9,52.87a3.77,3.77,0,0,1-2.13,1.91c-2,.74-3.32-.15-4-1.89-1.06-2.85-.33-5.52,2-6.37,1.7-.64,3-.25,3.61,1.43a7.82,7.82,0,0,1,.39,2l-4.86,1.82a2.56,2.56,0,0,0,.16.55,1.75,1.75,0,0,0,2.51,1.19,3.61,3.61,0,0,0,2-2.06Zm-1.31-3.74a1.72,1.72,0,0,0-.12-.56,1.52,1.52,0,0,0-2.16-.79,2.51,2.51,0,0,0-1.61,2.8Z"/><path class="cls-6" d="M36.17,43.05l1.4-.48.88,5.77,0,0,2.18-4.78L42.48,43,40.16,48.1,44,51l-1.68.58-3.86-2.9.61,4-1.4.48Z"/><path class="cls-6" d="M50.7,42.55a2.39,2.39,0,0,0-1.92-.23c-.7.22-1.28.78-1.05,1.51.42,1.35,2.84-.18,3.57,2.17a2.77,2.77,0,0,1-1.9,3.45,3.18,3.18,0,0,1-2.34-.15l-.2-1.39a2.8,2.8,0,0,0,2.09.32c.68-.21,1.34-.85,1.12-1.57-.45-1.42-3,0-3.68-2.26a2.78,2.78,0,0,1,2-3.49,2.71,2.71,0,0,1,2.06.13Z"/><path class="cls-6" d="M57.62,45l0,0a3.47,3.47,0,0,1-2.3,2.67,1.93,1.93,0,0,1-2.58-1.46,10.39,10.39,0,0,1-.19-1.39L52,40l1.42-.41.47,4.46a6.46,6.46,0,0,0,.24,1.29c.28,1,.8,1.06,1.51.86,1.67-.48,1.67-2.73,1.54-4l-.37-3.56,1.42-.42.86,8.16-1.31.38Zm-4.07-7.87c.42-.12.83-.09,1,.32a.74.74,0,0,1-.6,1c-.42.12-.83.09-1-.35S53,37.31,53.55,37.15Zm2.41-.7c.43-.12.84-.09,1,.32a.74.74,0,0,1-.6,1c-.42.12-.84.09-1-.34A.74.74,0,0,1,56,36.45Z"/><path class="cls-6" d="M59.57,39.44l-.09-.92a3.57,3.57,0,0,0,2.05-3.19L62,35.2l.16,2.19,2.32-.62.12,1.31-2.35.63.18,2.6c0,.26.11,1.7.17,1.94A.94.94,0,0,0,63.9,44a2.56,2.56,0,0,0,1.32-1l.13,1.31a4.26,4.26,0,0,1-1.79,1.06A1.72,1.72,0,0,1,61.32,44a7.08,7.08,0,0,1-.23-1.5l-.24-3.41Z"/><path class="cls-6" d="M71.11,41.46l0,0A3.48,3.48,0,0,1,68.67,44a1.92,1.92,0,0,1-2.52-1.56,10.85,10.85,0,0,1-.14-1.4l-.33-4.81,1.44-.36.3,4.47a6.28,6.28,0,0,0,.19,1.31c.24,1,.76,1.09,1.48.91,1.69-.42,1.77-2.67,1.69-4l-.24-3.58L72,34.69l.55,8.2-1.32.32Zm-3.77-8c.43-.11.84-.06.94.36a.73.73,0,0,1-.64,1c-.43.11-.84.06-1-.38A.74.74,0,0,1,67.34,33.44Zm2.44-.61c.43-.1.84-.06.94.36a.74.74,0,0,1-.63,1c-.43.1-.84.06-1-.38A.74.74,0,0,1,69.78,32.83Z"/><path class="cls-6" d="M77.39,33.47l1.37-.3L78.85,35h0a3.41,3.41,0,0,1,2.4-2.51c1.74-.38,2.55.89,2.87,2.38.46,2.11,0,5.64-2.5,6.18a2.12,2.12,0,0,1-2.52-1h0l.13,3.32-1.45.32Zm5.49,2c-.23-1.06-.83-1.7-2-1.46-1.92.42-2.21,2.74-1.85,4.38a1.58,1.58,0,0,0,2,1.43C82.79,39.43,83.17,36.81,82.88,35.46Z"/><path class="cls-6" d="M85.71,31.72l1.34-.27v2.17l0,0c.25-.93.62-2.5,1.76-2.73a1.55,1.55,0,0,1,.75,0l0,1.58a1.91,1.91,0,0,0-.87,0c-1.57.36-1.51,2.22-1.46,4l.09,3.14-1.45.29Z"/><path class="cls-6" d="M93.92,38.55c-1.85.34-3.25-.72-3.66-2.94-.47-2.6.63-5.09,3.38-5.59a3,3,0,0,1,3.71,2.65C97.77,35,97,38,93.92,38.55Zm-.21-7.07c-1.78.33-2.46,1.86-2.07,4,.2,1.11.86,2,2.23,1.77,1.92-.35,2.47-2.42,2.16-4.1A1.8,1.8,0,0,0,93.71,31.48Z"/><path class="cls-6" d="M98.17,30.93V30a3.57,3.57,0,0,0,2.36-3L101,27l-.05,2.2,2.37-.39v1.31l-2.4.4-.07,2.6c0,.27-.06,1.71,0,2a.93.93,0,0,0,1.2.88,2.66,2.66,0,0,0,1.42-.88v1.32a4.26,4.26,0,0,1-1.87.87,1.73,1.73,0,0,1-2.11-1.57,7.69,7.69,0,0,1-.08-1.51l.09-3.42Z"/><path class="cls-6" d="M110.1,34.83a3.76,3.76,0,0,1-2.48,1.43,2.81,2.81,0,0,1-3.49-2.67c-.46-3,.81-5.47,3.24-5.83,1.79-.27,3,.38,3.23,2.15a7.22,7.22,0,0,1,0,2.08l-5.13.77a3.37,3.37,0,0,0,0,.57A1.76,1.76,0,0,0,107.69,35a3.57,3.57,0,0,0,2.4-1.6Zm-.52-3.93a1.9,1.9,0,0,0,0-.58,1.53,1.53,0,0,0-2-1.21,2.51,2.51,0,0,0-2.16,2.41Z"/><path class="cls-6" d="M112.31,27.24a1.08,1.08,0,0,0,.66.12,1.51,1.51,0,0,0,.81-.32l-.34,8.2-1.47.21Zm.68-.68c-.37.05-.81,0-.88-.54s.43-.78.88-.84.93-.07,1,.47S113.44,26.5,113,26.56Z"/><path class="cls-6" d="M115.72,26.79l1.39-.17-.09,2h0a3.78,3.78,0,0,1,3-2.51,1.72,1.72,0,0,1,2.13,1.62,4,4,0,0,1,0,.78l-.29,5.69-1.47.18.25-4.89a5.84,5.84,0,0,0,0-.95c-.08-.64-.49-1-1.28-.89-1.91.24-2.35,2.12-2.43,3.72l-.18,3.46-1.46.18Z"/><path class="cls-6" d="M124.22,25.79a1,1,0,0,0,.65.13,1.51,1.51,0,0,0,.82-.29l-.56,8.18-1.47.16Zm.69-.67c-.37.05-.81,0-.87-.56s.45-.77.91-.82.93,0,1,.5S125.37,25.08,124.91,25.12Z"/><path class="cls-6" d="M135.61,32.79l-1.35.12.19-1.52,0,0a3,3,0,0,1-2.35,1.93,1.75,1.75,0,0,1-2-1.74c-.27-3,4.75-2.59,4.57-4.59-.06-.7-.77-.84-1.28-.8a3.86,3.86,0,0,0-2.75,1.72h0l.2-1.87a4.05,4.05,0,0,1,2.65-1.32c2.12-.19,2.57,1.16,2.64,2a7.32,7.32,0,0,1,0,1.21Zm-3.09-.68c1.61-.15,2-1.93,2.11-3.28-1.22,1.05-3.25,1.18-3.13,2.49A.92.92,0,0,0,132.52,32.11Z"/><path class="cls-6" d="M138.32,22.51l1.48-.12-1,10.15-1.48.12Z"/><path class="cls-6" d="M146.55,31.12A3.77,3.77,0,0,1,144,32.35c-2.1.14-3.13-1.09-3.26-3-.2-3,1.27-5.37,3.71-5.54,1.81-.12,2.93.62,3,2.41a7.32,7.32,0,0,1-.21,2.06l-5.17.35a2.68,2.68,0,0,0,0,.57,1.76,1.76,0,0,0,2.06,1.87,3.61,3.61,0,0,0,2.53-1.39Zm-.19-3.95a1.94,1.94,0,0,0,0-.57c-.07-1-.91-1.44-1.84-1.37a2.51,2.51,0,0,0-2.35,2.22Z"/><path class="cls-6" d="M149.31,23.75l1.36-.07-.3,2.15,0,0c.38-.89,1-2.39,2.14-2.45a1.51,1.51,0,0,1,.73.15l-.18,1.56a2.06,2.06,0,0,0-.86-.16c-1.6.13-1.82,2-2,3.75l-.37,3.12-1.48.08Z"/><path class="cls-6" d="M151.66,32.49a1.17,1.17,0,0,0,.52.09,1,1,0,0,0,1-.91l1.12-8.15a1,1,0,0,0,.64.18,1.42,1.42,0,0,0,.83-.25l-1.08,7.94c-.12.85-.39,2.16-2.05,2.23a3.84,3.84,0,0,1-1.11-.14ZM155,22.9c-.37,0-.81-.07-.83-.62s.5-.74.95-.76.94,0,1,.57S155.48,22.88,155,22.9Z"/><path class="cls-6" d="M157.7,23.38a1.08,1.08,0,0,0,.64.19,1.47,1.47,0,0,0,.84-.24L158,31.46l-1.48.05Zm.75-.61c-.38,0-.81-.07-.83-.63s.5-.73,1-.75.93,0,.95.58S158.9,22.76,158.45,22.77Z"/><path class="cls-6" d="M164.87,25.24a2.41,2.41,0,0,0-1.79-.74c-.74,0-1.44.4-1.42,1.16,0,1.42,2.78.6,2.85,3.07a2.78,2.78,0,0,1-2.77,2.8,3.2,3.2,0,0,1-2.21-.79l.18-1.39a2.8,2.8,0,0,0,1.93.88c.71,0,1.52-.46,1.5-1.21,0-1.49-2.86-.77-2.93-3.18a2.78,2.78,0,0,1,2.91-2.8,2.69,2.69,0,0,1,1.95.69Z"/><path class="cls-6" d="M166.75,23.15a1.14,1.14,0,0,0,.63.2,1.53,1.53,0,0,0,.84-.22l-1.31,8.1-1.48,0Zm.75-.6c-.38,0-.81-.08-.81-.64s.51-.73,1-.73.93.05.94.59S168,22.55,167.5,22.55Z"/><path class="cls-6" d="M170.19,23.1h1.4l-.33,1.95h0a3.82,3.82,0,0,1,3.29-2.15,1.73,1.73,0,0,1,1.93,1.86,4.13,4.13,0,0,1-.08.78l-1,5.62H174l.82-4.83a6.47,6.47,0,0,0,.09-.95c0-.65-.37-1-1.17-1-1.92,0-2.59,1.83-2.86,3.41l-.58,3.42h-1.48Z"/><path class="cls-6" d="M183.16,30.38a3.74,3.74,0,0,1-2.67,1c-2.12,0-3-1.34-3-3.21,0-3,1.69-5.25,4.14-5.22,1.82,0,2.87.86,2.84,2.64a7.16,7.16,0,0,1-.37,2.05l-5.19-.07a3.63,3.63,0,0,0,0,.57,1.76,1.76,0,0,0,1.91,2A3.61,3.61,0,0,0,183.39,29Zm.13-3.95a1.8,1.8,0,0,0,.1-.57c0-1-.8-1.5-1.73-1.51a2.51,2.51,0,0,0-2.52,2Z"/><path class="cls-6" d="M191.56,31.67c-1.88-.07-3-1.41-2.93-3.66.1-2.65,1.71-4.83,4.51-4.73a3,3,0,0,1,3,3.4C196.1,29,194.71,31.79,191.56,31.67Zm1.33-7c-1.81-.06-2.81,1.29-2.89,3.45,0,1.13.4,2.16,1.8,2.21,1.95.07,2.94-1.82,3-3.54A1.81,1.81,0,0,0,192.89,24.72Zm-.54-3.62c.44,0,.83.17.81.6s-.31.79-.88.77-.83-.17-.81-.63S191.78,21.08,192.35,21.1Zm2.52.09c.44,0,.82.17.81.6s-.32.79-.89.77-.82-.17-.81-.62S194.3,21.17,194.87,21.19Z"/><path class="cls-6" d="M196.49,30l4.9-4.73-3.78-.2.32-1.36,5.36.28-.42,1.77L198,30.39l3.83.2L201.6,32l-5.53-.28Z"/><path class="cls-6" d="M208.91,31.57a3.73,3.73,0,0,1-2.72.86,2.82,2.82,0,0,1-2.84-3.36c.2-3,2-5.16,4.42-5,1.81.12,2.81,1,2.69,2.79a7.37,7.37,0,0,1-.48,2l-5.18-.35a3.09,3.09,0,0,0-.08.57,1.75,1.75,0,0,0,1.8,2.12,3.58,3.58,0,0,0,2.69-1Zm.35-3.95a2.09,2.09,0,0,0,.12-.56c.07-1-.71-1.54-1.64-1.61a2.51,2.51,0,0,0-2.62,1.89Z"/><path class="cls-6" d="M213.17,22.7l1.48.11-2.58,9.87-1.48-.11Z"/><path class="cls-6" d="M20,72.42c-1.43.55-2-.52-2.24-1.76s-.14-2.38,1.34-2.94,1.95.27,2.21,1.59S21.47,71.88,20,72.42Zm-.62-3.25c-.51.2-.44.81-.38,1.13s.27,1.08.77.89.4-1,.33-1.3S19.92,69,19.41,69.17Zm1.42,8.22-.89-.25L23.8,65.75l.89.25Zm4.73-2c-1.43.54-2-.53-2.24-1.76s-.14-2.39,1.34-3,2,.27,2.2,1.6S27,74.86,25.56,75.4Zm-.62-3.25c-.51.19-.44.8-.37,1.13s.25,1.07.75.88.41-1,.34-1.3S25.45,72,24.94,72.15Z"/><path class="cls-6" d="M31.17,63.7l-3.45,3.5-.41-2.78,4-4.34,2.5-.83,1.83,12.56-3.15,1Z"/><path class="cls-6" d="M41.9,70.13c-4,1.19-5-2.25-5.37-5.66-.41-3.68.22-6.26,3.92-7.35s4.87,1,5.27,4.66C46.1,65.19,45.94,69,41.9,70.13Zm-2.57-6.34c.29,2.49.78,3.83,2.25,3.4s1.63-2,1.35-4.46c-.15-1.32-.49-2.74-2.1-2.27S39.19,62.47,39.33,63.79Z"/><path class="cls-6" d="M51.19,67.57c-4.07,1.06-4.92-2.4-5.19-5.82-.3-3.69.41-6.26,4.14-7.23s4.83,1.12,5.13,4.81C55.54,62.76,55.27,66.51,51.19,67.57Zm-2.37-6.42c.21,2.5.66,3.85,2.14,3.47s1.69-1.92,1.49-4.41c-.11-1.33-.41-2.76-2-2.34S48.72,59.82,48.82,61.15Z"/><path class="cls-6" d="M59.45,57l2.33-.51.07,1.7h0c.48-1.54,1-2.18,2.35-2.47,2.41-.54,2.73,2,2.8,3.5.15,3.79-1.46,5-2.78,5.32a1.68,1.68,0,0,1-2-1.18h0l.15,3.36-2.47.55Zm3.78,1.44c-1.08.24-1.29,1.38-1.26,2.29s.41,1.85,1.41,1.63,1.22-1.23,1.18-2.23S64.32,58.15,63.23,58.39Z"/><path class="cls-6" d="M67.94,55.13a3.53,3.53,0,0,0,1.29,0,4,4,0,0,0,1.27-.5l.22,8.27-2.56.53Zm1.18-.51c-.55.11-.91,0-.8-.64a1.13,1.13,0,0,1,1-1c.63-.13.89,0,.77.68A1.12,1.12,0,0,1,69.12,54.62Z"/><path class="cls-6" d="M71.78,54.36l2.41-.46,0,2.14h0c.17-1.14.64-2.51,2-2.76a2,2,0,0,1,1.06.06l0,3.11A1.26,1.26,0,0,0,76,56.06a2.24,2.24,0,0,0-1.59,2.45l.06,3.63-2.57.49Z"/><path class="cls-6" d="M78.11,53.19a3.48,3.48,0,0,0,1.29,0,4.31,4.31,0,0,0,1.29-.46V61l-2.57.45Zm1.19-.48c-.55.1-.9,0-.78-.65a1.13,1.13,0,0,1,1.06-1c.63-.11.89,0,.75.71A1.11,1.11,0,0,1,79.3,52.71Z"/><path class="cls-6" d="M82,52.52l2.42-.4,0,1.8h0A3.19,3.19,0,0,1,87,51.48c1.29-.21,2.19.36,2.17,2.2l-.08,6L86.48,60l.07-4.79c0-.72-.16-1.19-.89-1.07s-1.11,1-1.12,1.9l-.06,4.29-2.58.41Z"/><path class="cls-6" d="M96.31,53.65a2.19,2.19,0,0,0-3.79,1.56c0,.95.41,1.79,1.67,1.61a2.94,2.94,0,0,0,2.06-1.46l-.09,2.35a3.77,3.77,0,0,1-2.63,1.53c-2.61.36-3.6-1.54-3.52-3.86.1-2.62,1.37-4.54,4-4.92a2.69,2.69,0,0,1,2.34.62Zm-1.77,5.67,0,1-2.8.39.06-1Z"/><path class="cls-6" d="M101.05,49.81l2.37-.27-.12,1.7h0c.64-1.48,1.25-2.06,2.59-2.21,2.46-.28,2.51,2.26,2.42,3.78-.25,3.78-2,4.84-3.32,5a1.65,1.65,0,0,1-1.85-1.38h0l-.2,3.35-2.52.29Zm3.6,1.83c-1.1.12-1.42,1.22-1.49,2.14s.21,1.88,1.22,1.77,1.35-1.1,1.41-2.1S105.76,51.51,104.65,51.64Z"/><path class="cls-6" d="M109.49,48.9l2.45-.24-.18,2.13h0c.27-1.12.87-2.43,2.2-2.56a2,2,0,0,1,1.05.16l-.24,3.1a1.26,1.26,0,0,0-1.27-.51,2.24,2.24,0,0,0-1.81,2.29l-.28,3.63-2.61.24Z"/><path class="cls-6" d="M115.17,52.08a4.29,4.29,0,0,1,4.26-4.27c2.87-.23,3.72,1.43,3.5,3.67-.27,2.7-1.28,4.8-4.35,5S114.91,54.78,115.17,52.08Zm5.34-.07c.09-.82-.12-1.81-1.32-1.72a1.93,1.93,0,0,0-1.69,2c-.13,1.43.23,2.19,1.29,2.11S120.38,53.44,120.51,52Z"/><path class="cls-6" d="M123.44,48.48a4.89,4.89,0,0,0,2.8-2.87l1.4-.09-.22,2,2.32-.14-.26,2.32-2.35.14L126.77,53a.67.67,0,0,0,.76.8,1.55,1.55,0,0,0,1.32-.89l-.23,2A3.12,3.12,0,0,1,126.37,56c-1.53.1-2.46-.67-2.28-2.26l.43-3.72-1.25.08Z"/><path class="cls-6" d="M136,54.35a4.39,4.39,0,0,1-2.93,1.27c-2.79.13-3.75-1.41-3.4-4.1s1.61-4.44,4.49-4.57c2.26-.1,3.09,1.38,2.78,3.63a9.33,9.33,0,0,1-.27,1.44l-4.77.21c.06,1,.79,1.5,1.86,1.45a3.31,3.31,0,0,0,2.49-1.26Zm-.75-4.1c.05-.83-.6-1.18-1.42-1.14a1.77,1.77,0,0,0-1.65,1.28Z"/><path class="cls-6" d="M138.41,47a3.43,3.43,0,0,0,1.27.19A4.06,4.06,0,0,0,141,47l-1.18,8.19-2.61.08Zm1.25-.3c-.57,0-.9-.13-.68-.77a1.12,1.12,0,0,1,1.19-.82c.64,0,.88.13.64.8A1.13,1.13,0,0,1,139.66,46.74Z"/><path class="cls-6" d="M142.37,46.92l2.45,0-.28,1.77h0a3.21,3.21,0,0,1,2.85-2.06c1.31,0,2.12.67,1.84,2.5L148.33,55l-2.61,0,.75-4.73c.1-.73,0-1.21-.73-1.2s-1.24.81-1.38,1.73l-.67,4.24-2.62,0Z"/><path class="cls-6" d="M151.27,44.84h2.62L152.15,55h-2.62Z"/><path class="cls-6" d="M155,46.82a3.63,3.63,0,0,0,1.27.25,4.28,4.28,0,0,0,1.34-.23L156.15,55l-2.61,0Zm1.26-.25c-.57,0-.89-.16-.65-.79a1.13,1.13,0,0,1,1.22-.78c.64,0,.87.17.61.83A1.12,1.12,0,0,1,156.28,46.57Z"/><path class="cls-6" d="M162.41,50.85l-1.16,0,.41-2,1.17,0a6.54,6.54,0,0,1,.17-1.39A3,3,0,0,1,166.08,45a4.94,4.94,0,0,1,2.09.49l-.37,1.89a2.32,2.32,0,0,0-1.1-.3c-.8,0-1.24.4-1.41,1.24l-.12.57,2.07,0-.4,2L165,50.91l-.85,4.21-2.61-.06Z"/><path class="cls-6" d="M167.18,50.75A4.3,4.3,0,0,1,171.91,47c2.87.12,3.52,1.86,3,4.06-.57,2.64-1.83,4.61-4.9,4.49S166.61,53.4,167.18,50.75Zm5.32.55c.17-.8.08-1.81-1.12-1.86a1.92,1.92,0,0,0-1.9,1.74c-.3,1.41,0,2.2,1,2.24S172.19,52.7,172.5,51.3Z"/><path class="cls-6" d="M176.67,47.46l2.46.14-.5,2.08h0c.44-1.06,1.23-2.27,2.56-2.2a2,2,0,0,1,1,.32l-.71,3a1.26,1.26,0,0,0-1.18-.7c-1.07-.06-1.85.83-2.13,2l-.82,3.55-2.61-.15Z"/><path class="cls-6" d="M183,47.82l2.45.19L185,49.69h0A2.79,2.79,0,0,1,187.73,48c1.43.11,1.89.83,1.76,2.2h0a3.13,3.13,0,0,1,2.91-1.84c1.4.11,2.09.91,1.62,2.77l-1.46,5.65-2.61-.2,1.22-4.7c.19-.76,0-1.15-.57-1.19a1.24,1.24,0,0,0-1.34,1l-1.22,4.78-2.61-.2,1.21-4.71c.19-.76,0-1.15-.56-1.19a1.26,1.26,0,0,0-1.35,1L183.54,56l-2.61-.2Z"/><path class="cls-6" d="M198.87,55.59h0a3.18,3.18,0,0,1-3.07,1.7c-1.3-.12-2-.91-1.53-2.68l1.6-5.73,2.6.26-1.29,4.61c-.21.71-.15,1.2.58,1.27s1.33-.66,1.57-1.55l1.16-4.13,2.6.26-2.23,8-2.45-.24Zm-.6-6.78c-.56-.06-.9-.25-.73-.86s.53-.74,1.12-.68.88.24.7.9A.88.88,0,0,1,198.27,48.81Zm2.76.27c-.56,0-.9-.25-.73-.86s.53-.74,1.11-.68.89.25.7.9S201.56,49.13,201,49.08Z"/><path class="cls-6" d="M205,47.85l2.59.29L204.65,58l-2.6-.29Z"/><path class="cls-6" d="M210.85,48.31l-1.26.46.23-.74,1.49-.59.71.09-1,3.29-.9-.11Z"/></g></g></g></svg>