<svg xmlns="http://www.w3.org/2000/svg" xmlns:xlink="http://www.w3.org/1999/xlink" viewBox="0 0 93.06 94.5"><defs><style>.cls-1{isolation:isolate;}.cls-2{opacity:0.3;mix-blend-mode:multiply;}.cls-3{fill:#010101;}.cls-4{fill:#fff;}.cls-5{fill:url(#_ÂÁ_Ï_ÌÌ_È_ËÂÌÚ_32);}.cls-6{opacity:0.9;}.cls-7{opacity:0.2;}.cls-8{fill:url(#linear-gradient);}.cls-9{fill:#1c4586;}</style><linearGradient id="_ÂÁ_Ï_ÌÌ_È_ËÂÌÚ_32" x1="6.45" y1="47.23" x2="89.68" y2="47.23" gradientUnits="userSpaceOnUse"><stop offset="0" stop-color="#e3e3e3"/><stop offset="0.19" stop-color="#ececec"/><stop offset="0.63" stop-color="#fafafa"/><stop offset="1" stop-color="#fff"/></linearGradient><linearGradient id="linear-gradient" x1="9.34" y1="46.22" x2="85.2" y2="46.22" gradientUnits="userSpaceOnUse"><stop offset="0" stop-color="#e5a713"/><stop offset="0.57" stop-color="#ffe600"/><stop offset="1" stop-color="#e9b010"/></linearGradient></defs><title>Asset 2</title><g class="cls-1"><g id="Layer_2" data-name="Layer 2"><g id="Layer_1-2" data-name="Layer 1"><g class="cls-2"><path class="cls-3" d="M48.44,90.77A44.14,44.14,0,0,1,36.15,89C20.67,84.54,9,71.83,6.45,56.64a64.63,64.63,0,0,1-.64-12.23c.18-7.17.92-15.46,5-22.51A33.44,33.44,0,0,1,28.73,7.72,50.4,50.4,0,0,1,45.58,5.05c1.64,0,3.36.06,5.1.19,9,.64,21.39,3.32,29.5,12.43,5.28,5.93,8.4,14.45,8.78,24,.33,8.27-1.29,16.49-3,24.2A31.43,31.43,0,0,1,83.35,74a18.26,18.26,0,0,1-1.44,2.3C76,84.44,63.11,88.36,59.3,89.37A42.4,42.4,0,0,1,48.44,90.77Z"/></g><path class="cls-4" d="M48.44,90.77A44.14,44.14,0,0,1,36.15,89C20.67,84.54,9,71.83,6.45,56.64a64.63,64.63,0,0,1-.64-12.23c.18-7.17.92-15.46,5-22.51A33.44,33.44,0,0,1,28.73,7.72,50.4,50.4,0,0,1,45.58,5.05c1.64,0,3.36.06,5.1.19,9,.64,21.39,3.32,29.5,12.43,5.28,5.93,8.4,14.45,8.78,24,.33,8.27-1.29,16.49-3,24.2A31.43,31.43,0,0,1,83.35,74a18.26,18.26,0,0,1-1.44,2.3C76,84.44,63.11,88.36,59.3,89.37A42.4,42.4,0,0,1,48.44,90.77Z"/><path class="cls-5" d="M49.12,90.09a44.14,44.14,0,0,1-12.29-1.75C21.35,83.86,9.69,71.15,7.13,56a64.63,64.63,0,0,1-.64-12.23c.18-7.18.92-15.46,5-22.51A33.44,33.44,0,0,1,29.41,7,50.4,50.4,0,0,1,46.26,4.37c1.64,0,3.36.06,5.1.19,9,.64,21.39,3.32,29.5,12.43,5.28,5.93,8.4,14.45,8.78,24,.33,8.27-1.29,16.49-3,24.2A31.43,31.43,0,0,1,84,73.31a18.26,18.26,0,0,1-1.44,2.3C76.68,83.76,63.79,87.68,60,88.69A42.4,42.4,0,0,1,49.12,90.09Z"/><g class="cls-6"><path class="cls-4" d="M86.85,21.32h0Z"/><path class="cls-4" d="M86.84,21.28l0,0Z"/><polygon class="cls-4" points="86.83 21.3 86.84 21.29 86.84 21.29 86.83 21.3"/><polygon class="cls-4" points="86.83 21.3 86.83 21.3 86.83 21.3 86.83 21.3"/><polygon class="cls-4" points="86.83 21.27 86.84 21.27 86.82 21.28 86.85 21.29 86.85 21.26 86.83 21.27"/><polygon class="cls-4" points="86.54 20.91 86.54 20.9 86.54 20.91 86.54 20.91"/><path class="cls-4" d="M86.48,20.81h0Z"/><path class="cls-4" d="M86.54,20.94h0Z"/><path class="cls-4" d="M86.79,21.18Z"/><polygon class="cls-4" points="86.8 21.18 86.8 21.17 86.79 21.17 86.78 21.16 86.78 21.17 86.78 21.17 86.8 21.18"/><polygon class="cls-4" points="86.1 20.07 86.1 20.07 86.1 20.07 86.1 20.07 86.1 20.07 86.1 20.07"/><polygon class="cls-4" points="86.34 20.44 86.34 20.44 86.34 20.44 86.32 20.44 86.33 20.45 86.34 20.44"/><polygon class="cls-4" points="86.33 20.45 86.32 20.45 86.32 20.45 86.33 20.45 86.33 20.45"/><path class="cls-4" d="M86.56,20.77h0Z"/><polygon class="cls-4" points="86.35 20.5 86.36 20.5 86.36 20.5 86.35 20.5"/><polygon class="cls-4" points="86.22 20.36 86.22 20.36 86.22 20.35 86.22 20.36"/><path class="cls-4" d="M86.18,20.27h0Z"/><polygon class="cls-4" points="86.33 20.47 86.34 20.48 86.34 20.48 86.33 20.47"/><path class="cls-4" d="M86.25,20.41h0l0,0s0,0,0,0h0l.06.14h0l.11.19h0v0h0v0h0v0h0s0,0,0,0,0,0,0,0a0,0,0,0,1,0,0h0s0,0,0,0h0v0h0v0h0v0h0v0h0v0h0v0h0s0,0,0,0h0l0,0h.06v0h0v0h0v0h0v0h0s0,0,0,0h0v0h0v0h0l0,0h0l-.05,0h0v0h0v-.06h0l0,0h0l0,0h0v0l0,0h0l0-.08h0v0h0l0,0h0l0,0,0,0h0l0,0h0s0,0,0,0h0a0,0,0,0,1,0,0h0l0,0h0v0h0v0h0v0h0l0,0h0v0h0l0,0h0l0,0h0v0h0l0,0h0l0,0v0h0l0,0h0v0h0l0,0h0v0h0l0,0h0v0h0l0,0h0v0L86,20h0v0h0v0h0v0a.13.13,0,0,1,0,.07l0,0s0,0,0,0h0l0,0h0v0h0v0h0v0h0Zm.43.7h0Zm0-.07h0v0Zm.1.08h0Zm0-.08Zm-.26-.4h0Zm-.14-.18h0Z"/><polygon class="cls-4" points="86.79 21.28 86.79 21.28 86.79 21.28 86.81 21.28 86.8 21.27 86.79 21.28"/><polygon class="cls-4" points="86.83 21.24 86.84 21.23 86.83 21.24 86.83 21.24"/><path class="cls-4" d="M86.81,21.15h0Z"/><polygon class="cls-4" points="86.75 21.23 86.76 21.23 86.75 21.22 86.75 21.23"/><path class="cls-4" d="M86.8,21.14a0,0,0,0,0,0,0Z"/><path class="cls-4" d="M86.72,21.19h0Z"/><path class="cls-4" d="M86.76,21.12h0Z"/><polygon class="cls-4" points="86.72 21.18 86.72 21.2 86.72 21.18 86.73 21.18 86.72 21.18"/><polygon class="cls-4" points="86.76 21.09 86.76 21.1 86.78 21.11 86.76 21.09"/><polygon class="cls-4" points="86.72 21.16 86.71 21.16 86.72 21.16 86.72 21.16 86.72 21.16"/><polygon class="cls-4" points="86.7 21.15 86.7 21.14 86.69 21.16 86.7 21.15"/><polygon class="cls-4" points="86.71 21.14 86.71 21.14 86.69 21.14 86.71 21.14"/><path class="cls-4" d="M86.7,21h0Z"/><path class="cls-4" d="M86.64,21.07v0Z"/><polygon class="cls-4" points="86.53 20.91 86.54 20.91 86.52 20.91 86.53 20.91"/><path class="cls-4" d="M86.51,20.88h0Z"/><polygon class="cls-4" points="86.43 20.56 86.43 20.57 86.44 20.56 86.43 20.56"/><polygon class="cls-4" points="86.42 20.54 86.41 20.53 86.39 20.53 86.41 20.54 86.42 20.54"/><path class="cls-4" d="M86.41,20.56h0Z"/><path class="cls-4" d="M86.39,20.51h0Z"/><polygon class="cls-4" points="86.39 20.49 86.38 20.49 86.38 20.49 86.39 20.49"/><polygon class="cls-4" points="86.34 20.45 86.35 20.45 86.34 20.45 86.34 20.45"/><path class="cls-4" d="M86.32,20.47h0Z"/><path class="cls-4" d="M86.35,20.44h0Z"/><polygon class="cls-4" points="86.34 20.43 86.34 20.43 86.33 20.42 86.32 20.42 86.34 20.43 86.35 20.44 86.34 20.43"/><polygon class="cls-4" points="86.33 20.46 86.34 20.45 86.33 20.45 86.33 20.46"/><polygon class="cls-4" points="86.31 20.4 86.3 20.39 86.31 20.4 86.31 20.4"/><polygon class="cls-4" points="86.31 20.4 86.31 20.39 86.3 20.39 86.31 20.4"/><polygon class="cls-4" points="86.3 20.39 86.3 20.39 86.31 20.39 86.3 20.39"/><polygon class="cls-4" points="86.3 20.37 86.3 20.37 86.3 20.38 86.3 20.37"/><polygon class="cls-4" points="86.22 20.35 86.22 20.34 86.22 20.34 86.22 20.35"/><polygon class="cls-4" points="86.21 20.33 86.21 20.33 86.22 20.34 86.21 20.33 86.21 20.33"/><polygon class="cls-4" points="86.15 20.21 86.15 20.21 86.15 20.19 86.14 20.19 86.14 20.2 86.14 20.2 86.15 20.21"/><path class="cls-4" d="M89.71,27.27v0Z"/><path class="cls-4" d="M89.72,27.2l0,0S89.77,27.18,89.72,27.2Z"/><polygon class="cls-4" points="89.7 27.23 89.73 27.22 89.69 27.22 89.7 27.23"/><polygon class="cls-4" points="89.69 27.24 89.69 27.24 89.67 27.23 89.69 27.24"/><path class="cls-4" d="M89.72,27.16h0s0,0-.07,0,.07,0,.06,0,0,0,0,0Z"/><path class="cls-4" d="M89.24,26.59h0Z"/><polygon class="cls-4" points="89.14 26.43 89.15 26.42 89.14 26.43 89.14 26.43"/><path class="cls-4" d="M89.36,26.67v0Z"/><polygon class="cls-4" points="89.03 25.48 89.03 25.48 89.03 25.48 89.03 25.48 89.03 25.48"/><path class="cls-4" d="M89,26.25h0Z"/><polygon class="cls-4" points="89.39 26.73 89.39 26.73 89.39 26.74 89.39 26.73 89.39 26.73"/><path class="cls-4" d="M89.11,26.51h0Z"/><path class="cls-4" d="M89.71,27h0Z"/><path class="cls-4" d="M89.7,27s.07,0,0,0h0Z"/><path class="cls-4" d="M89.32,26.63h0Z"/><path class="cls-4" d="M89.38,26.84h0Z"/><path class="cls-4" d="M89.31,26.61h0Z"/><path class="cls-4" d="M88.78,24.58v0s0,0,0,0h0l0,0Z"/><path class="cls-4" d="M89.07,25.4h0l0,0,0,0h0Z"/><polygon class="cls-4" points="89.01 25.43 89.01 25.43 89 25.43 89 25.44 89.01 25.43"/><path class="cls-4" d="M89.44,26.08h0Z"/><polygon class="cls-4" points="89.08 25.52 89.08 25.52 89.08 25.52 89.08 25.52"/><path class="cls-4" d="M88.64,25.32h0v0Z"/><path class="cls-4" d="M88.55,25.14h0Z"/><path class="cls-4" d="M89,25.47v0S89,25.47,89,25.47Z"/><path class="cls-4" d="M88.67,25.44h0s0,.06.07.05.08,0,0,.05h0c0,.1,0,.21.1.28h0a3.71,3.71,0,0,0,.15.4h.08v0h0l0,.05,0,0h0l0,0c.08,0,0,0,0,0h.2v0h0s0,0,0,0h0l0,0h0s0,0,0,0,0,0,0,0,0,0,.05,0a0,0,0,0,1,0,0h0l.06,0,0,0,0,0,0,0s0,0,0,0,0,0,0,0,0-.05-.08,0h0s0,0,0,0l.05,0h0l0,0h.07l0,0v0h0l-.07,0,0,0h0s0,0,0,0h0s.06,0,0,0h0l0,0v0h0s0,0,0,0h0v0l0,0h0v0h0l0,0h0l0,0h0s0,0,0,.07l0,0h.06a.18.18,0,0,0,0,.07s0,0,0,0h0l0,0h0l.12,0-.08.05h0l-.07,0h.08l-.05,0h0v0l0,0h0v0h0v0h0l0,0h0c.06,0,0,0,.11,0h0l0,0h-.07l.08,0h0l0,0h0l0,0s-.06,0-.06,0v0h-.07v0c.08,0,0,0,0,0a.13.13,0,0,1,.09,0l0,0,0,0h0l0,0h0l0,0v0s-.07,0-.11,0h0a.36.36,0,0,0,.11,0v0s0,0,0,0l-.05,0,0,0h0l0,0a.07.07,0,0,1,0-.07l0,0h0l0,0h-.09l0,0c.05,0,0,0,0,0l0,0s0,0,0,0h0l.06,0v-.05l-.11-.08h0s0,0,0,0h-.06l0,0h0l0,0h0l0,0h-.09l0,0-.08,0h0a.23.23,0,0,1,0-.14h0l0,0-.06-.11,0,0s-.06,0-.08,0l0,0h0v0a.14.14,0,0,0,0,0v0h0v0l0,0,0,0,0,0s0-.11-.08-.16,0,0,0,0h0l-.07,0h0l.07-.05-.1.05h0l0-.05h0l.06,0h-.13v0h0v0h0v0l0,0-.07,0c0-.05,0,0,.06,0h-.11l0,0,0,0h0v0l0,0,0,0,0,0H89l.08,0v0l.09,0v0h0s-.06,0-.06,0l0-.07h-.1l0,0,0,0h0s0,0,0,0h0a.08.08,0,0,1,0,0H89a.11.11,0,0,1,0-.05h0s0,0,0,0h0v0h0l0,0,0,0h0a.1.1,0,0,1,0,0s0,0,0,0l0,0h0v0s0,0,.06,0,0,0,0,0l0,0v0h0l0,0,0,0H89s0,0,0,0a.09.09,0,0,1-.06,0v0l.08,0H89a0,0,0,0,1,0,0,0,0,0,0,1,0,0h0l0,0,0,0v0h0l0,0s-.07,0,0,0h0v0h0A.15.15,0,0,1,89,25l0-.07h0l0,0a.33.33,0,0,1,0-.06l0-.07h0a.07.07,0,0,0,0,0h0s0-.05,0-.05v0l0,0s0,0,0,0h0v0l-.08,0s0,0,.06,0h-.05s0,0,0,0h-.11l.07,0,0,0s0,0,0,0v0l-.06,0v0h0l0,0a.16.16,0,0,0-.1,0l0,0a0,0,0,0,1,0,0l0,0h-.09l0,0s-.06.05-.08,0l0,0h0c.06,0,0,0,0,0l0-.05s-.07,0-.07,0l0,0,0-.05h0v0h0v0l-.07,0h0l0,.12,0,.05h0l0,0h0v0h0v.05s0,0,0,0v0h0v0h0v0c.11.06,0,.16.07.24l0,0h0v0h0v0s0,0,0,0h0v0h0l0,0,0,.06h0v.05h0l0,0s.06,0,0,0l0,0h0l0,0v0h0v0s0,0,0,0h0l0,0Zm.73,1.39h0Zm0-.12h0v0h0l0,0Zm.32.17h0Zm-.07-.05h0Zm0-.15v0Zm-.39-.86h0Zm-.3-.35,0,0h0S88.91,25.45,88.92,25.47Z"/><path class="cls-4" d="M89.18,25.51Z"/><path class="cls-4" d="M89,25.43v0Z"/><path class="cls-4" d="M89.57,27.19h.06l0,0Z"/><polygon class="cls-4" points="89.77 27.11 89.79 27.09 89.77 27.09 89.77 27.11"/><path class="cls-4" d="M89.79,26.92h0Z"/><path class="cls-4" d="M89.5,27.09h0s0,0,0,0Z"/><path class="cls-4" d="M89.78,26.88h0Z"/><path class="cls-4" d="M89.45,27v0Z"/><path class="cls-4" d="M89.65,26.84s0,0,0,0h0l0,0,.06-.05Z"/><path class="cls-4" d="M89.44,27l0,0,0,0h0S89.44,27,89.44,27Z"/><polygon class="cls-4" points="89.7 26.78 89.69 26.79 89.75 26.8 89.7 26.78"/><polygon class="cls-4" points="89.48 26.95 89.44 26.96 89.46 26.95 89.46 26.96 89.48 26.95"/><polygon class="cls-4" points="89.42 26.93 89.4 26.92 89.36 26.95 89.42 26.93"/><polygon class="cls-4" points="89.45 26.91 89.45 26.9 89.39 26.91 89.45 26.91"/><path class="cls-4" d="M89.61,26.58h0Z"/><path class="cls-4" d="M89.32,26.75l0,0Z"/><polygon class="cls-4" points="89.08 26.46 89.11 26.46 89.06 26.45 89.08 26.46"/><path class="cls-4" d="M89.06,26.38h0Z"/><path class="cls-4" d="M89.32,25.71h0Z"/><polygon class="cls-4" points="89.29 25.7 89.3 25.69 89.31 25.68 89.29 25.7"/><path class="cls-4" d="M89.3,25.63h0Z"/><polygon class="cls-4" points="89.31 25.64 89.32 25.64 89.31 25.64 89.31 25.64"/><polygon class="cls-4" points="89.29 25.62 89.26 25.65 89.32 25.62 89.29 25.62"/><path class="cls-4" d="M89.27,25.6s0,0,0,0-.07,0-.07,0,.06,0,0,0S89.26,25.6,89.27,25.6Z"/><path class="cls-4" d="M89.21,25.63v0Z"/><polygon class="cls-4" points="89.23 25.56 89.25 25.54 89.23 25.55 89.23 25.56"/><path class="cls-4" d="M89.22,25.52h0Z"/><polygon class="cls-4" points="89.24 25.47 89.2 25.48 89.2 25.48 89.24 25.47"/><polygon class="cls-4" points="89.11 25.42 89.14 25.42 89.11 25.41 89.11 25.42"/><path class="cls-4" d="M89,25.48v0Z"/><path class="cls-4" d="M89.15,25.38h0Z"/><polygon class="cls-4" points="89.13 25.37 89.16 25.35 89.14 25.33 89.08 25.36 89.11 25.38 89.17 25.37 89.13 25.37"/><polygon class="cls-4" points="89.04 25.44 89.05 25.43 89.03 25.43 89.04 25.44"/><polygon class="cls-4" points="89.07 25.3 89.06 25.28 89.06 25.29 89.07 25.3"/><polygon class="cls-4" points="89.07 25.29 89.09 25.28 89.07 25.28 89.07 25.29"/><polygon class="cls-4" points="89.08 25.26 89.08 25.26 89.09 25.26 89.08 25.26"/><polygon class="cls-4" points="89.07 25.23 89.06 25.23 89.07 25.24 89.07 25.23"/><polygon class="cls-4" points="88.6 25.3 88.64 25.28 88.61 25.29 88.6 25.3"/><polygon class="cls-4" points="88.64 25.25 88.61 25.26 88.64 25.28 88.64 25.26 88.64 25.25"/><path class="cls-4" d="M88.56,25h0l0,0h0l0,0h0Z"/><path class="cls-4" d="M88.48,24.29l0,0Z"/><path class="cls-4" d="M91.63,33.59h0Z"/><path class="cls-4" d="M91.63,33.58h0Z"/><path class="cls-4" d="M91.65,33.53l0,0S91.72,33.51,91.65,33.53Z"/><polygon class="cls-4" points="91.62 33.55 91.65 33.55 91.6 33.55 91.62 33.55"/><polygon class="cls-4" points="91.6 33.56 91.61 33.56 91.58 33.55 91.6 33.56"/><path class="cls-4" d="M91.67,33.49h0s-.06,0-.09,0,.09,0,.08,0,0,0,0,0Z"/><path class="cls-4" d="M91.18,32.88h0Z"/><polygon class="cls-4" points="91.09 32.7 91.1 32.69 91.09 32.7 91.09 32.7"/><path class="cls-4" d="M91.32,33h0Z"/><polygon class="cls-4" points="91.23 31.72 91.25 31.72 91.26 31.72 91.24 31.72 91.23 31.72"/><path class="cls-4" d="M91,32.51h0Z"/><path class="cls-4" d="M91,32.78h0Z"/><path class="cls-4" d="M91.7,33.3h0Z"/><path class="cls-4" d="M91.69,33.29s.1,0,0,0h0Z"/><path class="cls-4" d="M91.27,32.92h0Z"/><path class="cls-4" d="M91.3,33.13h0Z"/><path class="cls-4" d="M91.27,32.9h0Z"/><polygon class="cls-4" points="91.24 30.76 91.22 30.78 91.27 30.76 91.25 30.75 91.2 30.77 91.24 30.76"/><polygon class="cls-4" points="91.33 31.64 91.32 31.64 91.37 31.63 91.24 31.65 91.24 31.66 91.33 31.64"/><polygon class="cls-4" points="91.24 31.66 91.24 31.66 91.22 31.66 91.22 31.67 91.24 31.66"/><path class="cls-4" d="M91.26,30.91h0Z"/><path class="cls-4" d="M91.62,32.36h0Z"/><polygon class="cls-4" points="91.31 31.75 91.31 31.76 91.3 31.77 91.31 31.75"/><polygon class="cls-4" points="90.73 31.55 90.75 31.52 90.73 31.53 90.73 31.55"/><polygon class="cls-4" points="91.25 30.75 91.25 30.75 91.25 30.75 91.25 30.75"/><path class="cls-4" d="M90.66,31.35h0Z"/><polygon class="cls-4" points="91.22 31.7 91.22 31.73 91.23 31.72 91.22 31.7"/><path class="cls-4" d="M90.72,31.66h0l.09.06c-.11.06.11,0,0,.05h0c0,.1,0,.22,0,.3h0c0,.15.08.28.09.42H91l0,0H91l0,.06,0,0v0l-.06,0v.05h.23l0,0s-.06,0-.07,0,0,0,0,0h0l0,0h0l-.08,0,.06,0,.08,0h0s0,0-.07,0a.23.23,0,0,1,.11,0s0,0,0,0,0,0,0,0,0,0,0,0l0,0-.07,0s0-.06-.09,0l-.06,0,0,0,.07,0h0l0,0s0,0,0,0a.21.21,0,0,0,.08,0l.09,0h0a.26.26,0,0,0-.1,0v0h.08v0h0l0,0,0,0h.06l0,0h0l0,0h0l0,0h0v0h0v.07l.07,0h.08l-.17.08.08,0h0l.06,0s.06,0,0,0h.11s-.07,0-.13,0h0l0,0-.08,0h0c.06,0,0,0,0,0h0l0,0h0l.08,0,0,0h0l0,0h0l-.06,0h0a.17.17,0,0,0-.08,0v0h0c.08,0,.06,0,.15,0h.06l-.09,0h.17l0,0h-.05l.06,0s-.09,0-.09,0l0,0h-.09c.06,0,0,0,0,0l.06,0a.07.07,0,0,1,.06,0l0,0,0,0H91.6l.07,0v0c-.06,0-.1,0-.16,0h.11l0,0s0,0,0,0l-.08,0,.06,0h0l-.08,0a.1.1,0,0,1,.07-.06h0l0,0h0v0h0s.06,0,.08,0-.06,0,0,0l0,0h0l.07,0,0,0-.11-.1h-.06l.07-.05,0,0h-.08l0,0h0l0,0h0l0,0h0l.06,0-.12,0h.06l-.09,0h0l.06-.15H91.6l0,0a.24.24,0,0,0,0-.12l.08,0s-.09,0-.11,0l.08,0h0v0s-.06,0-.15,0,.08,0,.08,0h.06s0,0,0,0,0,0,0,0h0l0,0a1.47,1.47,0,0,1,0-.17l0,0,0,0h0l-.11,0,.06,0,.12-.06-.16.06h0l.06,0h0a.17.17,0,0,1,.09,0h-.06v0l0,0h-.07s0,0,0,0h0l0,0h0v0l-.07,0-.11,0,.1,0s-.15,0-.15,0l0,0s0,0,0,0l.07,0h0l-.07,0h0l0,0a.08.08,0,0,0,0,0s0,0,0,0h0s.13,0,.11,0,0,0,0,0l0,0h0l0,0h0s-.08,0-.08,0h-.06l0,0,0,0v0h.06l-.1,0h0c-.09,0,0,0,0,0h0l0,0,.07,0h0l0,0h0v0s0,0,0,0h0l0,0,.07,0,0,0,0,0c.07,0,0,0,0,0s0,0,0,0h.18l0,0-.09,0v0a.24.24,0,0,0,.1,0h0l0,0H91.3l0,0a.31.31,0,0,0-.12,0,.06.06,0,0,0,.06,0l.14,0h-.1l.08,0s-.07,0-.06,0h0l.06,0h-.06v0h0l0,0s-.11,0-.08,0h0l0,0-.08,0,.06,0s0-.06,0-.07h0s-.06,0-.06,0,0-.05,0-.05a.09.09,0,0,1,0-.09h0V31h0s0,0,0,0l0,0v-.05l0,0h0s0,0,0,0l-.1,0h0l0,0,0,0,0,0H91s.08,0,.13,0l.09,0-.06,0h0s-.09,0-.06,0H91l.07,0c-.08,0-.06,0-.06,0h0s0,0,0,0,0,0,0,0-.08,0-.14,0l0,0h-.1s.06,0,.06,0l0,0c.11-.05-.08,0-.08,0l.09-.05h-.08v0h0v0h0v0l-.13.05h0a.22.22,0,0,0-.11.14l0,.05h0l-.06,0h0l0,.05h0v0h0l0,.05h.07l0,0h0v0h0a.07.07,0,0,1,0,.06s0,.16,0,.23a0,0,0,0,0,0,0h.08l0,0v0H90.7l0,0h0l0,0s.07,0,0,.06.08,0,.07,0h0a.17.17,0,0,1,0,.06h0l0,0h0l.11,0,0,0h0l-.08,0v0h0l0,0h0l0,0S90.63,31.67,90.72,31.66Zm.61,1.46Zm0-.12,0,0V33l0,0,0,0C91.38,33,91.28,33,91.32,33Zm.37.2h0Zm-.07-.06h0Zm0-.16v0Zm-.26-.91h0Zm-.32-.37.08,0h0l0,0h0Z"/><path class="cls-4" d="M91.45,31.76h0Z"/><path class="cls-4" d="M91.18,31.66l0,0Z"/><path class="cls-4" d="M91.46,33.51h0s0,0,0,0Z"/><polygon class="cls-4" points="91.74 33.43 91.78 33.42 91.76 33.43 91.74 33.43"/><path class="cls-4" d="M91.82,33.24v0Z"/><path class="cls-4" d="M91.39,33.4h0s0,0,0,0Z"/><path class="cls-4" d="M91.82,33.2h0Z"/><path class="cls-4" d="M91.35,33.32l0,0Z"/><path class="cls-4" d="M91.66,33.16h0l0,0Z"/><polygon class="cls-4" points="91.33 33.3 91.3 33.33 91.34 33.3 91.39 33.29 91.33 33.3"/><path class="cls-4" d="M91.75,33.1h0Z"/><polygon class="cls-4" points="91.4 33.24 91.35 33.26 91.37 33.26 91.38 33.27 91.4 33.24"/><polygon class="cls-4" points="91.33 33.23 91.3 33.22 91.24 33.24 91.33 33.23"/><path class="cls-4" d="M91.36,33.2h0Z"/><path class="cls-4" d="M91.69,32.89h0Z"/><path class="cls-4" d="M91.24,33l0,0S91.2,33.05,91.24,33Z"/><path class="cls-4" d="M91.19,33h0Z"/><path class="cls-4" d="M91,32.72h0Z"/><path class="cls-4" d="M91,32.72h0Z"/><path class="cls-4" d="M91,32.65s0,0,0,0Z"/><path class="cls-4" d="M91.58,32h0Z"/><polygon class="cls-4" points="91.54 31.96 91.55 31.95 91.58 31.94 91.54 31.96"/><path class="cls-4" d="M91.57,31.89h0Z"/><polygon class="cls-4" points="91.58 31.89 91.6 31.89 91.59 31.89 91.58 31.89"/><polygon class="cls-4" points="91.58 31.87 91.52 31.89 91.61 31.87 91.58 31.87"/><path class="cls-4" d="M91.55,31.84v0h-.13s.12,0,.12,0Z"/><path class="cls-4" d="M91.45,31.88l0,0Z"/><polygon class="cls-4" points="91.51 31.8 91.53 31.79 91.51 31.79 91.51 31.8"/><path class="cls-4" d="M91.52,31.77h0Z"/><path class="cls-4" d="M91.55,31.71h0Z"/><polygon class="cls-4" points="91.39 31.65 91.41 31.66 91.4 31.65 91.39 31.65"/><path class="cls-4" d="M91.19,31.71v0Z"/><path class="cls-4" d="M91.45,31.62h0S91.48,31.61,91.45,31.62Z"/><path class="cls-4" d="M91.43,31.6h0l0,0-.1,0s.12,0,0,0h0Z"/><path class="cls-4" d="M91.27,31.68l0,0h0C91.19,31.68,91.27,31.67,91.27,31.68Z"/><polygon class="cls-4" points="91.38 31.52 91.35 31.51 91.35 31.52 91.38 31.52"/><polygon class="cls-4" points="91.39 31.51 91.4 31.5 91.37 31.5 91.39 31.51"/><polygon class="cls-4" points="91.41 31.49 91.41 31.49 91.42 31.5 91.41 31.49"/><polygon class="cls-4" points="91.4 31.44 91.39 31.46 91.4 31.47 91.4 31.44"/><path class="cls-4" d="M90.69,31.51h0Z"/><polygon class="cls-4" points="90.75 31.47 90.7 31.48 90.75 31.5 90.74 31.48 90.75 31.47"/><polygon class="cls-4" points="90.73 31.21 90.78 31.2 90.75 31.16 90.7 31.18 90.73 31.19 90.7 31.19 90.73 31.21"/><path class="cls-4" d="M90.88,30.45l.05,0Z"/><path class="cls-4" d="M92.56,40.14h0Z"/><path class="cls-4" d="M92.57,40.13h0Z"/><path class="cls-4" d="M92.6,40.08l.05,0Z"/><polygon class="cls-4" points="92.56 40.1 92.6 40.09 92.54 40.09 92.56 40.1"/><polygon class="cls-4" points="92.53 40.1 92.55 40.1 92.51 40.09 92.53 40.1"/><path class="cls-4" d="M92.62,40h-.08l.08,0s0,0,.06,0Z"/><path class="cls-4" d="M92.21,39.36Z"/><polygon class="cls-4" points="92.14 39.18 92.15 39.17 92.14 39.17 92.14 39.18"/><path class="cls-4" d="M92.35,39.47h0Z"/><polygon class="cls-4" points="92.47 38.23 92.48 38.23 92.48 38.23 92.47 38.22 92.47 38.23"/><path class="cls-4" d="M92,39h0Z"/><polygon class="cls-4" points="92.35 39.54 92.35 39.54 92.34 39.54 92.35 39.54 92.35 39.54"/><path class="cls-4" d="M92.06,39.25h0Z"/><path class="cls-4" d="M92.69,39.85h0Z"/><path class="cls-4" d="M92.67,39.74h0Z"/><polygon class="cls-4" points="92.68 39.84 92.69 39.83 92.68 39.83 92.66 39.81 92.64 39.82 92.63 39.83 92.68 39.84"/><path class="cls-4" d="M92.3,39.41Z"/><path class="cls-4" d="M92.3,39.4h0Z"/><polygon class="cls-4" points="92.65 37.27 92.63 37.29 92.68 37.27 92.67 37.27 92.6 37.28 92.65 37.27"/><path class="cls-4" d="M92.58,38.16h0Z"/><polygon class="cls-4" points="92.48 38.16 92.47 38.16 92.46 38.17 92.45 38.17 92.48 38.16"/><path class="cls-4" d="M92.64,37.43Z"/><path class="cls-4" d="M92.76,38.91h0Z"/><polygon class="cls-4" points="92.54 38.27 92.53 38.27 92.53 38.28 92.54 38.27"/><path class="cls-4" d="M91.94,38c.06,0,0,0,0,0h0S91.94,38,91.94,38Z"/><path class="cls-4" d="M91.9,37.78h0Z"/><polygon class="cls-4" points="92.45 38.21 92.45 38.24 92.47 38.23 92.45 38.21"/><path class="cls-4" d="M91.91,38.1h0l.1.06c-.15,0,.12,0,.12,0l-.1,0c0,.1-.08.21,0,.3h0c0,.15.05.29,0,.43h.13l0,0H92V39l0,0v0H92v.06l.25,0,0,0h-.07v0h.07l-.06,0h0s0,0,0,0l-.08,0,.06,0h.09s0,0,.07,0h0s0,0,0,0-.05,0-.05,0,0,0-.13,0l0,0,0,0h.08l.06,0h0l.09,0,.08,0,0,0h0l-.12,0v0h0s0,0,0,0h0l0,0h0l0,0,0,0h-.06l.12,0v0h0l0,0h0c-.06,0,0,0,0,0h0l0,0h0v0h0c-.08,0,0,0,0,0h0l.08,0-.18,0h.07l.07,0s0,0,0,0h.12a.17.17,0,0,1-.08,0l0,0h-.05l0,0h0c.06,0,0,0,0,0h0v0h.13l0,0h-.06l.09,0-.08,0h0v0h-.05v0h0a.55.55,0,0,0,.16,0h0l0,0h.08v0h-.16v0c.13,0,0,0,0,0h.17l-.06,0,0,0h0l0,0h.07v0a.5.5,0,0,0-.18,0h0a.55.55,0,0,0,.17,0v0c.09,0-.06,0-.06,0l.14-.05-.09,0,.08,0h-.08s0,0,.08,0h0l-.06,0h.09c.08,0-.06,0-.06,0l.06,0h0l.07,0,0,0-.11-.11h0l.09,0-.07,0,0,0h.18l-.13,0h.07l-.09,0s0,0,0,0,0-.09.1-.14h0c0-.06,0-.08,0-.13l.08,0s-.08,0-.1,0h.07l0,0-.15,0h.14v0l0,0h0l.07,0s0-.11,0-.17h0l0,0h0l-.11,0s0,0,.06,0a1.08,1.08,0,0,1,.19,0l-.22,0s0,0,0,0l.07,0h0l.11,0s0,0,0,0l0,0h0s-.08,0,0,0h-.09c.06,0,0,0,0,0h0l0,0,0,0,0,0h-.08l-.12,0c.07,0,0,0,0,0s-.09,0-.08-.05l0,0,.07,0h0l0,0s-.06,0-.06,0h-.07l0,0h-.11l.14,0,0,0,.12,0,0,0h0l.09,0-.08,0,.07,0h-.06l-.09,0h-.06l0,0h0l0,0h.07l-.08,0h0c-.1,0,0,0,0,0h0l-.05,0s0,0,.09,0l0,0,0,0h0s0,0,0,0h0l0,0a.17.17,0,0,1,.09,0l0,0c.06,0,0,0,0,0h.11l0,0h.09l0,0h.11s-.06,0,0,0l-.11,0,0,0h-.1l0,0-.13,0h.1s.08,0,.08,0h-.06v0h0c.09,0,0,0,0,0h0v0l0,0,.05,0-.08,0h.08s0,0,0,0l0,0-.08,0,.07,0s0,0,0,0l0,0h-.07l.08,0s-.06,0,0-.08h0v-.06h0s0,0,0,0l0,0,0,0,0,0h0l0,0-.12,0c.09,0,0,0,0,0l0,0h-.06c-.06,0,0,0,0,0l-.07,0s-.07,0-.07,0,0,0,.1,0h.12l-.07,0h0s-.1,0-.1,0h0l.08,0a.26.26,0,0,0-.16,0l.09,0,0,0,.08,0-.15,0,.09,0s-.16.05-.16,0l.08,0h0c.14,0-.1,0-.1,0a.51.51,0,0,1,.11,0s-.13,0-.11,0h0v0h0s0,0,0,0h0a.15.15,0,0,1-.06,0,.27.27,0,0,1-.11,0h0L92,37l0,.06,0,0-.08,0h0l0,.05H92l0,0,.07,0,0,0H92s0,0,0,0h0l-.07.06c.18.06-.07.15,0,.23H92l0,0h0s.09,0,.07,0h0l0,0v0H92v0h0s.08,0,.08,0v0h0c-.08,0,0,0,0,0l0,0,0,0h0s.1,0,.07,0l.08,0h0s0,0,0,0H92v0h0v0l0,0h0l0,0Zm.41,1.53h0Zm0-.13,0,0,0,0h0a.09.09,0,0,1,.06,0Zm.36.26h0Zm-.06-.07h0Zm.07-.16s0,0,0,0S92.69,39.52,92.7,39.53Zm-.12-.93h0Zm-.28-.42h.11Z"/><path class="cls-4" d="M92.7,38.29h0Z"/><path class="cls-4" d="M92.41,38.16l0,0Z"/><polygon class="cls-4" points="92.41 40.02 92.39 40.02 92.36 40.03 92.48 40.04 92.44 40.01 92.41 40.02"/><polygon class="cls-4" points="92.71 40 92.75 39.99 92.72 39.99 92.71 40"/><path class="cls-4" d="M92.82,39.81l0,0Z"/><path class="cls-4" d="M92.35,39.91h0l0,0Z"/><path class="cls-4" d="M92.83,39.77h0Z"/><path class="cls-4" d="M92.31,39.82v0Z"/><path class="cls-4" d="M92.67,39.71l0,0h0l0,0a.17.17,0,0,1,.09,0Z"/><path class="cls-4" d="M92.3,39.8l0,0h.11S92.3,39.82,92.3,39.8Z"/><polygon class="cls-4" points="92.77 39.66 92.75 39.67 92.83 39.7 92.77 39.66"/><polygon class="cls-4" points="92.39 39.77 92.32 39.76 92.36 39.77 92.35 39.78 92.39 39.77"/><polygon class="cls-4" points="92.31 39.74 92.28 39.72 92.21 39.74 92.31 39.74"/><polygon class="cls-4" points="92.35 39.72 92.37 39.71 92.27 39.7 92.35 39.72"/><path class="cls-4" d="M92.75,39.45h0S92.78,39.43,92.75,39.45Z"/><path class="cls-4" d="M92.24,39.53l0,0A0,0,0,0,0,92.24,39.53Z"/><path class="cls-4" d="M92.2,39.5h0Z"/><path class="cls-4" d="M92,39.18Z"/><polygon class="cls-4" points="92.04 39.19 92.08 39.2 92.02 39.18 92.04 39.19"/><path class="cls-4" d="M92,39.11h0Z"/><path class="cls-4" d="M92.79,38.51h0Z"/><polygon class="cls-4" points="92.75 38.5 92.77 38.5 92.79 38.48 92.75 38.5"/><path class="cls-4" d="M92.8,38.44h0Z"/><path class="cls-4" d="M92.82,38.45h0Z"/><path class="cls-4" d="M92.81,38.45h0Z"/><polygon class="cls-4" points="92.8 38.43 92.74 38.44 92.83 38.43 92.8 38.43"/><path class="cls-4" d="M92.78,38.39v0s-.12,0-.12,0h.12Z"/><path class="cls-4" d="M92.66,38.41l0,0Z"/><polygon class="cls-4" points="92.75 38.34 92.78 38.33 92.75 38.33 92.75 38.34"/><path class="cls-4" d="M92.76,38.31h0Z"/><path class="cls-4" d="M92.8,38.27s-.08,0-.06,0h0S92.79,38.26,92.8,38.27Z"/><polygon class="cls-4" points="92.64 38.18 92.68 38.19 92.65 38.17 92.64 38.18"/><path class="cls-4" d="M92.41,38.21c-.06,0,0,0,0,0Z"/><path class="cls-4" d="M92.73,38.15v0Z"/><polygon class="cls-4" points="92.7 38.13 92.75 38.13 92.73 38.1 92.61 38.12 92.67 38.14 92.77 38.14 92.7 38.13"/><path class="cls-4" d="M92.51,38.19h0C92.42,38.18,92.51,38.19,92.51,38.19Z"/><polygon class="cls-4" points="92.65 38.05 92.62 38.03 92.62 38.04 92.65 38.05"/><polygon class="cls-4" points="92.67 38.04 92.69 38.04 92.65 38.03 92.67 38.04"/><polygon class="cls-4" points="92.69 38.02 92.69 38.02 92.71 38.03 92.69 38.02"/><path class="cls-4" d="M92.7,38h0s0,0,0,0Z"/><polygon class="cls-4" points="91.89 37.95 91.95 37.94 91.9 37.94 91.89 37.95"/><polygon class="cls-4" points="91.98 37.92 91.91 37.91 91.97 37.94 91.95 37.92 91.98 37.92"/><path class="cls-4" d="M92,37.65h.06s0,0,0,0H92S92,37.64,92,37.65Z"/><path class="cls-4" d="M92.31,36.91h0Z"/><path class="cls-4" d="M92.5,46.75h0Z"/><path class="cls-4" d="M92.51,46.74h0Z"/><path class="cls-4" d="M92.55,46.7l0,0Z"/><polygon class="cls-4" points="92.52 46.71 92.54 46.71 92.5 46.7 92.52 46.71"/><polygon class="cls-4" points="92.49 46.71 92.5 46.71 92.47 46.69 92.49 46.71"/><path class="cls-4" d="M92.57,46.66H92.5l.07,0,.05,0S92.59,46.67,92.57,46.66Z"/><path class="cls-4" d="M92.3,45.93h0Z"/><polygon class="cls-4" points="92.27 45.74 92.29 45.73 92.27 45.74 92.27 45.74"/><path class="cls-4" d="M92.41,46.06h0Z"/><polygon class="cls-4" points="92.69 44.84 92.71 44.84 92.72 44.84 92.7 44.84 92.69 44.84"/><path class="cls-4" d="M92.2,45.52h0Z"/><polygon class="cls-4" points="92.41 46.13 92.41 46.12 92.41 46.13 92.41 46.13 92.41 46.13"/><path class="cls-4" d="M92.19,45.79h0Z"/><path class="cls-4" d="M92.65,46.48h0Z"/><path class="cls-4" d="M92.66,46.37Z"/><polygon class="cls-4" points="92.64 46.47 92.66 46.46 92.66 46.46 92.64 46.45 92.62 46.44 92.61 46.45 92.64 46.47"/><path class="cls-4" d="M92.38,46h0Z"/><path class="cls-4" d="M92.38,46h0Z"/><polygon class="cls-4" points="93 43.93 92.98 43.94 93.03 43.93 93.02 43.92 92.96 43.93 93 43.93"/><polygon class="cls-4" points="92.81 44.79 92.8 44.8 92.84 44.79 92.71 44.78 92.71 44.78 92.81 44.79"/><polygon class="cls-4" points="92.71 44.78 92.71 44.78 92.69 44.78 92.69 44.79 92.71 44.78"/><path class="cls-4" d="M93,44.08h0Z"/><path class="cls-4" d="M92.85,45.57h0Z"/><polygon class="cls-4" points="92.75 44.9 92.74 44.9 92.74 44.91 92.75 44.9"/><path class="cls-4" d="M92.25,44.53h0v0Z"/><path class="cls-4" d="M92.23,44.32h0Z"/><polygon class="cls-4" points="92.68 44.82 92.68 44.86 92.69 44.84 92.68 44.82"/><path class="cls-4" d="M92.2,44.64h0l.07.08c-.13,0,.12,0,0,.05h0c0,.1-.1.19,0,.29h0a3.25,3.25,0,0,0,0,.44l.11,0H92.2v0h0v0h-.08s0,0,0,.05l.21.07h0l-.06,0v0h.06l-.06,0,0,0s0,0,0,0l-.08,0,.06,0h.08l0,.06h-.06l-.08,0,0,0,0,0h.07l0,0h0l.07,0,.08,0v0h-.1s0,0,0,0h0l0,0h0v0h0l0,0h0l.1,0v0s0,0,0,0h0s0,0,0,0v0h0v0h-.06s0,0,0,.05h.07l.06,0-.16,0h.12l0,0h-.06l.16,0a.17.17,0,0,1-.12,0l0,0h0l0,0h-.08v0h0l0,0s0,0-.05,0v0h.07l0,0h0l0,0,0,0,.06,0h-.06l0,0-.07,0v0h0v0h0l.14,0h0l0,0h-.05s.06,0,.05,0h.07l0,0h0l-.09,0h0l-.07,0s0,0,0,0l0,0,.09,0-.06,0,0,0h0l0,0h.06v0a.28.28,0,0,0-.14,0l0,0,.14,0v0c.09,0,0,0,0,0l.12,0h0v0h0v0h-.1l.09-.05h0s0,0,0,0h0l0,0v0l-.06,0h.08l0,0h.06l.06.06,0,0c0-.05,0-.09-.07-.13h0l.08,0h-.06l0,0h.11v0h.06l-.12,0h.07s-.07,0-.08,0,0,0,0,0,0-.08.11-.12h0s0-.08,0-.12l.07,0s-.07,0-.08-.06.08,0,.08,0h0v0l-.12-.08h.12l0,0,0,0h0l.06,0s0-.11,0-.17h0l0,0h0l-.09,0s0,0,.06,0a.91.91,0,0,1,.17,0h-.22l.08,0,0,0h0l0,0-.07,0h.06l0,0,0,0h-.06l-.09-.05s0,0,0,0-.08,0-.08,0l0-.06.08,0h.07l-.07,0h0l0,0-.1,0h.13s0,0,0,0l.1.07,0,0h0L93,45l0,0,.06,0-.11,0,.06,0-.08,0h-.06l0,0h0v0h-.08l0,0,.08,0,0,0,0,0h0v0h-.08l.09,0,0,0,0,0,.06,0,0,0h.09s.09,0,.1,0-.06,0-.06,0a.08.08,0,0,1-.05,0H93l0,0h0l-.1,0h0l-.11-.06h.12v0h.08l-.06,0h0l0,0h-.07v0h.06s-.13,0-.08,0l.08,0,0,0,0,0-.07,0,.06,0s0-.06,0-.09h0s-.07,0-.07,0l.08,0s-.05-.05,0-.08h0a.17.17,0,0,1,0-.05h0l0-.09h0l0,0s-.08,0,0,0h0s0,0,0,0l-.09-.07c.09,0,0,0,0,0l.06,0h.06l-.09,0h0l0,0h-.06l-.11,0,.15,0H93s0,0,0,0h0s-.08,0,0-.06h0l-.15-.06h.08l0,0,0,0-.15,0h.1s-.16,0-.16,0h.1l-.09,0h.1s-.12,0-.1,0h0v-.05h0s0,0,0,0h-.09l-.11,0h0a.26.26,0,0,0-.15.1c.07,0,0,0,0,.06a0,0,0,0,1,0,0s0,0,0,0h0l0,0s0,0,0,0,0,0,0,0h0l0,0c.08,0,0,0,0,0l0,0h.06v0h0a.17.17,0,0,1-.07,0c.15.09-.09.13,0,.23h.08v0h0v0h0l0,0,.06,0h0s0,0,0,0l-.07,0v0c-.06,0,0,0-.08,0h0v0h0s.07,0,0,.06l.08,0h0l-.06,0h0l0,0h0l.06,0h.11l0,0H92.3s0,0,0,0h0s0,0,0,0h0l-.06,0Zm.17,1.57h0Zm0-.12h0v0h0Zm.27.3h0Zm0-.07h0Zm.08-.15v0Zm0-.94s0,0,.06,0v0h-.05Zm-.18-.45h.09S92.55,44.76,92.56,44.78Z"/><path class="cls-4" d="M92.65,44.78h0Z"/><polygon class="cls-4" points="92.39 46.61 92.38 46.61 92.35 46.62 92.45 46.65 92.43 46.6 92.39 46.61"/><polygon class="cls-4" points="92.65 46.63 92.69 46.63 92.67 46.62 92.65 46.63"/><path class="cls-4" d="M92.78,46.47h0Z"/><polygon class="cls-4" points="92.36 46.5 92.39 46.5 92.37 46.48 92.36 46.5"/><path class="cls-4" d="M92.79,46.43l0,0Z"/><path class="cls-4" d="M92.33,46.4v0Z"/><polygon class="cls-4" points="92.66 46.35 92.68 46.36 92.65 46.35 92.69 46.38 92.77 46.36 92.66 46.35"/><polygon class="cls-4" points="92.33 46.38 92.29 46.4 92.34 46.39 92.38 46.4 92.33 46.38"/><path class="cls-4" d="M92.75,46.31h0l.06,0Z"/><polygon class="cls-4" points="92.41 46.35 92.35 46.34 92.38 46.36 92.38 46.37 92.41 46.35"/><polygon class="cls-4" points="92.35 46.32 92.32 46.3 92.26 46.3 92.35 46.32"/><polygon class="cls-4" points="92.38 46.3 92.4 46.3 92.32 46.28 92.38 46.3"/><path class="cls-4" d="M92.76,46.09h0S92.79,46.08,92.76,46.09Z"/><path class="cls-4" d="M92.31,46.11s0,0,0,0Z"/><path class="cls-4" d="M92.27,46.07h0Z"/><path class="cls-4" d="M92.17,45.73h0Z"/><path class="cls-4" d="M92.18,45.73s0,0,0,0l0,0Z"/><path class="cls-4" d="M92.2,45.66h0Z"/><path class="cls-4" d="M92.94,45.18l0,0Z"/><polygon class="cls-4" points="92.91 45.15 92.92 45.16 92.95 45.15 92.91 45.15"/><path class="cls-4" d="M93,45.1h0Z"/><polygon class="cls-4" points="92.97 45.11 92.99 45.12 92.98 45.11 92.97 45.11"/><polygon class="cls-4" points="92.97 45.09 92.92 45.1 93 45.1 92.97 45.09"/><path class="cls-4" d="M93,45.05v0s-.11,0-.11,0H93Z"/><path class="cls-4" d="M92.85,45.05h0Z"/><polygon class="cls-4" points="92.93 45.01 92.96 44.99 92.93 44.99 92.93 45.01"/><path class="cls-4" d="M92.94,45h0Z"/><path class="cls-4" d="M93,44.93s-.07,0,0,0h0Z"/><path class="cls-4" d="M92.86,44.82s0,0,0,0h0Z"/><path class="cls-4" d="M92.64,44.82v0Z"/><path class="cls-4" d="M92.94,44.81v0Z"/><polygon class="cls-4" points="92.92 44.79 92.96 44.79 92.96 44.76 92.85 44.76 92.88 44.79 92.98 44.81 92.92 44.79"/><path class="cls-4" d="M92.74,44.81h0C92.66,44.79,92.74,44.81,92.74,44.81Z"/><polygon class="cls-4" points="92.88 44.7 92.87 44.68 92.87 44.69 92.88 44.7"/><polygon class="cls-4" points="92.91 44.69 92.93 44.69 92.89 44.67 92.91 44.69"/><polygon class="cls-4" points="92.93 44.67 92.93 44.67 92.94 44.68 92.93 44.67"/><polygon class="cls-4" points="92.94 44.63 92.92 44.64 92.93 44.65 92.94 44.63"/><polygon class="cls-4" points="92.21 44.49 92.26 44.49 92.21 44.48 92.21 44.49"/><path class="cls-4" d="M92.29,44.47l-.06,0,0,0s0,0,0,0Z"/><path class="cls-4" d="M92.34,44.21h0v0a.11.11,0,0,1-.07,0l0,0h0S92.36,44.2,92.34,44.21Z"/><path class="cls-4" d="M92.74,43.52h0Z"/><path class="cls-4" d="M91.45,53.27Z"/><path class="cls-4" d="M91.45,53.27h0Z"/><path class="cls-4" d="M91.48,53.22v0Z"/><polygon class="cls-4" points="91.45 53.23 91.47 53.23 91.45 53.22 91.45 53.23"/><polygon class="cls-4" points="91.44 53.24 91.44 53.24 91.43 53.22 91.44 53.24"/><path class="cls-4" d="M91.5,53.19h0s0,0,0,0h0Z"/><polygon class="cls-4" points="91.48 52.26 91.49 52.25 91.48 52.26 91.48 52.26"/><path class="cls-4" d="M91.51,52.59h0Z"/><polygon class="cls-4" points="91.9 51.41 91.92 51.42 91.92 51.42 91.9 51.41 91.9 51.41"/><path class="cls-4" d="M91.47,52h0Z"/><polygon class="cls-4" points="91.5 52.66 91.5 52.65 91.5 52.66 91.5 52.66 91.5 52.66"/><path class="cls-4" d="M91.42,52.31Z"/><path class="cls-4" d="M91.58,53h0Z"/><path class="cls-4" d="M91.6,52.91h0Z"/><polygon class="cls-4" points="91.58 53.01 91.59 53 91.58 53 91.58 52.98 91.57 52.98 91.56 52.99 91.58 53.01"/><path class="cls-4" d="M91.5,52.53h0Z"/><path class="cls-4" d="M91.51,52.52h0Z"/><polygon class="cls-4" points="92.27 50.55 92.25 50.55 92.29 50.56 92.29 50.54 92.25 50.54 92.27 50.55"/><polygon class="cls-4" points="91.99 51.38 91.98 51.38 92.02 51.37 91.93 51.35 91.92 51.36 91.99 51.38"/><polygon class="cls-4" points="91.92 51.36 91.92 51.36 91.91 51.36 91.91 51.36 91.92 51.36"/><path class="cls-4" d="M91.88,52.14h0Z"/><polygon class="cls-4" points="91.93 51.47 91.92 51.48 91.92 51.48 91.93 51.47"/><polygon class="cls-4" points="91.65 51.06 91.67 51.06 91.64 51.04 91.65 51.06"/><polygon class="cls-4" points="92.29 50.54 92.28 50.54 92.29 50.54 92.29 50.54"/><polygon class="cls-4" points="91.89 51.4 91.89 51.42 91.9 51.41 91.89 51.4"/><path class="cls-4" d="M91.6,51.16h0c.06,0,0,.06,0,.06s.14.07.14.07h-.07c0,.09-.1.18-.07.29h0c0,.14,0,.29-.08.43l.06,0v0l0,0s0,0,0,.05h0a0,0,0,0,1,0,0h0v0l.13.09h0l0,0v0s0,0,0,0h-.09l0,0,0,0v0s0,0,0,0h0a.08.08,0,0,0,0,.07h0v0h0l0,0,0,0,0,0h0l0,0h0l0,0,.06,0v0h0v0s-.05,0-.06,0h0l0,0v.05h-.07l0,0v.05h0v0h0s0,0,0,0h0v0h0l0,0h0l0,0h-.11s0,0,0,0h0v0h0l.08,0h-.07v0h0s0,0,0,0,0,0,0,0h0l0,0h0v0h0a0,0,0,0,1,0,0h0s0,0,0,0h0l0,0h0v0l0,0v0h0v0h0s0,0,0,0h0l0,0,0,0,0,0h0v0h0l0,0h0l0,0v0s0,0,0,0a0,0,0,0,1,0,0v0h0l0,0h0l0,0h0v0l-.08,0,0,0,.08,0h0l0,0,0,0h0v0h-.06a.07.07,0,0,1,.06-.05h0s0,0,0,0h0l0,0h0l0,0,0,0v0h0s0,0,0,0h0l0,0,0,0s0-.08,0-.13h0l.06,0h0l0,0h.11l-.06-.06h0s0,0,0-.05h0a.38.38,0,0,1,.08-.11h0s0-.08,0-.12h0a.19.19,0,0,1,0-.08s0,0,0,0l0,0h0l0,0-.07-.09h.06l0,0v0h0l0,0s0-.12,0-.17h0v0h0l0-.06s0,0,0,0,.11,0,.09,0H91.9l0,0,0,0h0l0,0,0,0h0l-.06-.05s0,0,0,0,0,0,0,0v-.06H92l0,0h0v0s0,0,0,0h0l.08.05h0l0,0,0,0,0,0-.06,0h0l0,0H92v0h0s0,0,0,0v0h-.07l0,0h0l0,0,0,0,0,0s0,0,0,0h0v0h0v0l0,0,0,0v0l.05,0h0l.06,0v0H92l0,0s0,0,.07,0h-.06l-.06,0v0l0-.06H92l.08,0-.07,0v0h0l0,0h0l0,0,0,0h0l0,0v0h0s-.08,0,0,0h0l0,0-.05,0,.05,0s0,0,0-.09h0s0,0,0,0h.06v-.07h0v-.06h0s0,0,0,0l0,0s0,0,0,0,0,0,0,0h0l0,0-.06-.07c.06,0,0,0,.06,0v0h0l0,0h0l0,0h0l-.07-.05a0,0,0,0,1,0,0l.13,0,0-.05h0l0-.06h0l0,0h.06l-.1-.07h.07v0h0l-.1-.06h.08l-.12,0h.07s-.07,0-.06,0h.07l-.07,0h0v0h0s0,0,0,0h0s0,0,0,0a.08.08,0,0,0-.07,0h0l-.13.08a0,0,0,0,0,0,.06l0,0h-.06l0,0s-.07,0,0,0h0l0,0,0,0h0l.05,0v0h0l0,0c.1.11-.09.12-.07.22h0l0,0h0v0s.06,0,0,0h0v0h0l0,0v0s0,0,0,0h0v0h0v0h0s0,0,0,.07l0,0h0l0,0,0,0h0l0,0h0l0,0h0l0,0-.07,0s0,0,0,0h0v.05h0s0,0,0,0Zm-.14,1.58h0Zm0-.12h0a.1.1,0,0,1,0,0h0Zm.11.31h0Zm0-.08h0Zm.07-.13h0Zm.2-.92h0Zm-.05-.47.05,0h-.05Z"/><path class="cls-4" d="M91.89,51.34h0Z"/><polygon class="cls-4" points="91.4 53.14 91.39 53.13 91.38 53.14 91.43 53.17 91.43 53.13 91.4 53.14"/><polygon class="cls-4" points="91.55 53.16 91.57 53.16 91.56 53.16 91.55 53.16"/><path class="cls-4" d="M91.66,53h0Z"/><path class="cls-4" d="M91.4,53h0S91.4,53,91.4,53Z"/><path class="cls-4" d="M91.67,53v0Z"/><path class="cls-4" d="M91.41,52.93h0Z"/><polygon class="cls-4" points="91.61 52.88 91.62 52.9 91.61 52.89 91.62 52.92 91.67 52.91 91.61 52.88"/><polygon class="cls-4" points="91.41 52.9 91.38 52.91 91.41 52.91 91.43 52.91 91.41 52.9"/><path class="cls-4" d="M91.67,52.86h0l0,0A0,0,0,0,0,91.67,52.86Z"/><polygon class="cls-4" points="91.46 52.88 91.42 52.87 91.45 52.87 91.44 52.88 91.46 52.88"/><polygon class="cls-4" points="91.43 52.84 91.42 52.82 91.38 52.82 91.43 52.84"/><polygon class="cls-4" points="91.45 52.83 91.46 52.83 91.42 52.79 91.45 52.83"/><path class="cls-4" d="M91.73,52.65h0S91.74,52.64,91.73,52.65Z"/><path class="cls-4" d="M91.44,52.63v0Z"/><path class="cls-4" d="M91.42,52.59h0Z"/><path class="cls-4" d="M91.42,52.24h0Z"/><path class="cls-4" d="M91.42,52.25l0,0,0,0Z"/><path class="cls-4" d="M91.44,52.18h0Z"/><path class="cls-4" d="M92,51.76h0Z"/><polygon class="cls-4" points="91.99 51.74 92 51.74 92.02 51.74 91.99 51.74"/><path class="cls-4" d="M92,51.7h0Z"/><polygon class="cls-4" points="92.04 51.71 92.05 51.71 92.04 51.7 92.04 51.71"/><path class="cls-4" d="M92.05,51.68h0a.07.07,0,0,1,.06,0Z"/><polygon class="cls-4" points="92.04 51.65 92.05 51.62 91.96 51.58 92.01 51.63 92.04 51.65"/><path class="cls-4" d="M92,51.64v0Z"/><polygon class="cls-4" points="92.03 51.59 92.05 51.58 92.04 51.58 92.03 51.59"/><path class="cls-4" d="M92.05,51.56l0,0Z"/><path class="cls-4" d="M92.09,51.53h0Z"/><polygon class="cls-4" points="92.02 51.41 92.03 51.43 92.03 51.41 92.02 51.41"/><path class="cls-4" d="M91.87,51.38v0Z"/><path class="cls-4" d="M92.07,51.41Z"/><path class="cls-4" d="M92.07,51.38h0s0,0,0,0H92l0,0,.06,0S92.06,51.39,92.07,51.38Z"/><polygon class="cls-4" points="91.94 51.39 91.96 51.38 91.93 51.37 91.94 51.39"/><polygon class="cls-4" points="92.05 51.29 92.05 51.27 92.05 51.28 92.05 51.29"/><polygon class="cls-4" points="92.07 51.28 92.09 51.28 92.07 51.27 92.07 51.28"/><polygon class="cls-4" points="92.09 51.27 92.09 51.27 92.1 51.28 92.09 51.27"/><polygon class="cls-4" points="92.11 51.23 92.09 51.23 92.09 51.25 92.11 51.23"/><polygon class="cls-4" points="91.63 51.02 91.66 51.02 91.63 51.01 91.63 51.02"/><path class="cls-4" d="M91.68,51l0,0s0,0,0,0v0Z"/><polygon class="cls-4" points="91.75 50.75 91.79 50.77 91.78 50.73 91.75 50.71 91.77 50.73 91.74 50.73 91.75 50.75"/><path class="cls-4" d="M92.15,50.12h0Z"/><path class="cls-4" d="M90,58.06h0Z"/><path class="cls-4" d="M90,58h0Z"/><polygon class="cls-4" points="89.96 58.04 89.96 58.03 89.96 58.03 89.96 58.04"/><polygon class="cls-4" points="89.98 58.01 89.98 58.01 89.98 58.01 89.97 58.02 89.98 58.01 89.98 58.01"/><path class="cls-4" d="M90.07,57.72h0Z"/><path class="cls-4" d="M90.14,57.46h0Z"/><polygon class="cls-4" points="90.06 57.76 90.06 57.75 90.06 57.76 90.06 57.76 90.06 57.76"/><path class="cls-4" d="M90.09,57.59Z"/><path class="cls-4" d="M90,57.92h0Z"/><polygon class="cls-4" points="90.01 57.91 90.01 57.91 90.01 57.91 90.02 57.91 90.02 57.91 90.01 57.91 90.01 57.91"/><path class="cls-4" d="M90.08,57.69Z"/><path class="cls-4" d="M90.51,56.7h0Z"/><polygon class="cls-4" points="90.32 57.11 90.32 57.11 90.33 57.11 90.31 57.1 90.31 57.1 90.32 57.11"/><polygon class="cls-4" points="90.31 57.1 90.31 57.1 90.31 57.1 90.3 57.11 90.31 57.1"/><path class="cls-4" d="M90.48,56.77h0Z"/><polygon class="cls-4" points="90.29 57.16 90.29 57.16 90.29 57.17 90.29 57.16"/><polygon class="cls-4" points="90.28 56.96 90.29 56.95 90.29 56.95 90.28 56.96"/><polygon class="cls-4" points="90.3 57.13 90.3 57.13 90.3 57.13 90.3 57.13"/><path class="cls-4" d="M90.26,57h0v0s0,0,0,0h0l0,.1v0l-.06.21v0h0l0,0h0v0h0s0,0,0,0v0h0v0h0v0h0v0h0v0h0v0h0v0h0v0h0v0h0v0h0v0h0v0h0v0h0v0h0v0h0v0h0v0a0,0,0,0,1,0,0h0v0h0v0h0v0h0l0,0v0h0v0h0v0h0l0-.06h0l0-.06h0v0h0v0h0v0a.1.1,0,0,0,0,0v0h0v0h0v0h0s0,0,0,0h0v0h0v0h0v0h0v0h0v0h0v0h0s0,0,0,0h0v0h0v0h0v0h0v0h0a.1.1,0,0,0,0,0h0s0,0,0,0l0,0s0,0,0,0h0l0,0h0a.1.1,0,0,0,0,0h0v0h0v0s0,0,0,0,0,0,0,0a0,0,0,0,1,0,0h0v0h0l0,0,0,0h0v0h0v0h0v0h0v0h0l0,0h0s0,0,0,0h0v0l0,0v0h0v0h0v0h0l-.05,0v0h0l0,0h0v0s0,0,0,0h0v0h0v0c0,.05,0,.07-.05.11h0v0h0l0,0h0l0,0h0v0h0v0h0Zm-.2.71h0Zm0,0h0Zm.17-.45h0Zm.06-.22h0Z"/><path class="cls-4" d="M90.31,57.19h0Z"/><polygon class="cls-4" points="89.98 57.99 89.98 57.99 89.98 57.99 89.98 58.01 89.98 57.98 89.98 57.99"/><polygon class="cls-4" points="89.98 57.99 89.98 57.98 89.98 57.98 89.98 57.99"/><polygon class="cls-4" points="90 57.94 90 57.94 90 57.93 90 57.94"/><path class="cls-4" d="M90,57.89h0Z"/><path class="cls-4" d="M90,57.9Z"/><polygon class="cls-4" points="90.03 57.86 90.03 57.87 90.03 57.86 90.03 57.87 90.03 57.86 90.03 57.86"/><polygon class="cls-4" points="90.01 57.88 90.01 57.9 90.01 57.89 90.01 57.89 90.01 57.88"/><polygon class="cls-4" points="90.05 57.83 90.04 57.84 90.04 57.85 90.05 57.83"/><polygon class="cls-4" points="90.02 57.86 90.02 57.86 90.02 57.86 90.01 57.87 90.02 57.86"/><polygon class="cls-4" points="90.03 57.85 90.03 57.84 90.02 57.85 90.03 57.85"/><polygon class="cls-4" points="90.03 57.84 90.03 57.84 90.03 57.83 90.03 57.84"/><path class="cls-4" d="M90.06,57.74h0S90.05,57.75,90.06,57.74Z"/><path class="cls-4" d="M90.06,57.73Z"/><path class="cls-4" d="M90.1,57.56h0Z"/><polygon class="cls-4" points="90.1 57.56 90.1 57.57 90.1 57.56 90.1 57.56"/><path class="cls-4" d="M90.12,57.52h0Z"/><path class="cls-4" d="M90.27,57.3h0Z"/><polygon class="cls-4" points="90.27 57.28 90.27 57.28 90.27 57.28 90.27 57.28"/><path class="cls-4" d="M90.29,57.26h0Z"/><path class="cls-4" d="M90.29,57.25h0s0,0,0,0Z"/><polygon class="cls-4" points="90.29 57.23 90.3 57.23 90.28 57.21 90.29 57.23 90.29 57.23"/><path class="cls-4" d="M90.3,57.19h0Z"/><polygon class="cls-4" points="90.32 57.18 90.31 57.18 90.31 57.18 90.32 57.18"/><polygon class="cls-4" points="90.32 57.13 90.32 57.13 90.32 57.12 90.32 57.13"/><path class="cls-4" d="M90.29,57.12Z"/><path class="cls-4" d="M90.33,57.12h0Z"/><path class="cls-4" d="M90.33,57.11h0s0,0,0,0h0Z"/><polygon class="cls-4" points="90.31 57.12 90.32 57.11 90.31 57.11 90.31 57.12"/><polygon class="cls-4" points="90.35 57.06 90.35 57.06 90.35 57.06 90.35 57.06"/><polygon class="cls-4" points="90.35 57.06 90.36 57.07 90.35 57.06 90.35 57.06"/><polygon class="cls-4" points="90.37 57.03 90.36 57.03 90.36 57.04 90.37 57.03"/><polygon class="cls-4" points="90.28 56.94 90.29 56.95 90.28 56.94 90.28 56.94"/><polygon class="cls-4" points="90.3 56.94 90.29 56.93 90.29 56.95 90.29 56.93 90.3 56.94"/><polygon class="cls-4" points="90.35 56.81 90.36 56.81 90.36 56.79 90.35 56.78 90.35 56.8 90.35 56.79 90.35 56.81"/><path class="cls-4" d="M90.53,56.49h0Z"/></g><g class="cls-6"><path class="cls-4" d="M68.15,88c0-.07,0,0-.07,0Z"/><path class="cls-4" d="M68.08,88l0,0Z"/><path class="cls-4" d="M67.68,88.24c.07-.09.2-.11.22-.2S67.66,88.18,67.68,88.24Z"/><polygon class="cls-4" points="67.84 88.19 67.83 88.15 67.79 88.25 67.84 88.19"/><polygon class="cls-4" points="67.91 88.17 67.89 88.17 67.79 88.28 67.91 88.17"/><path class="cls-4" d="M67.38,88.43l.08-.07c.11,0,0,.09,0,.09.19-.09.06-.11.2-.2s-.22.15-.24.08S67.42,88.37,67.38,88.43Z"/><path class="cls-4" d="M61.94,91.85h0Z"/><path class="cls-4" d="M60.3,92.53h0Z"/><path class="cls-4" d="M62.9,91.29l.07,0Z"/><polygon class="cls-4" points="52.07 93.83 52.08 93.82 52.08 93.81 52.06 93.83 52.07 93.83"/><path class="cls-4" d="M58.44,93.24a.11.11,0,0,0-.07,0Z"/><polygon class="cls-4" points="63.48 91.02 63.45 91.03 63.48 91.02 63.48 91.02 63.48 91.02"/><path class="cls-4" d="M60.88,92.41l-.06,0Z"/><path class="cls-4" d="M66,89.26l-.07,0A.11.11,0,0,0,66,89.26Z"/><path class="cls-4" d="M65.11,89.8h0Z"/><path class="cls-4" d="M65.92,89.31s-.11-.06-.12.06h0s-.08.06-.11.09h0l.09,0A.59.59,0,0,0,65.92,89.31Z"/><path class="cls-4" d="M62.41,91.55l0,0Z"/><path class="cls-4" d="M64.27,90.68h0Z"/><path class="cls-4" d="M62.32,91.59l0,0S62.33,91.57,62.32,91.59Z"/><path class="cls-4" d="M63.7,90.92h0Z"/><path class="cls-4" d="M43.83,93l.1,0c.09,0-.18,0,0-.07h-.09l0,.07C43.91,93.07,43.78,93.05,43.83,93Z"/><path class="cls-4" d="M51.56,93.74h0s0,0,0,0,0,.09-.13.14h0A.22.22,0,0,1,51.56,93.74Z"/><path class="cls-4" d="M51.52,93.85h0Z"/><path class="cls-4" d="M45.14,93.3h0Z"/><path class="cls-4" d="M58.36,92.48l0,0Z"/><path class="cls-4" d="M52.52,93.74h0Z"/><path class="cls-4" d="M49.31,94.41c0-.06,0,0,0,0h0Z"/><polygon class="cls-4" points="43.78 93 43.78 93.01 43.79 93.01 43.78 93"/><path class="cls-4" d="M47.39,94.34h0Z"/><path class="cls-4" d="M51.9,93.86h.24l-.07,0S51.93,93.81,51.9,93.86Z"/><path class="cls-4" d="M50.37,94.45l0,0c.24-.08.53,0,.72-.12.3.13.19-.13.47,0v0l.68,0h.24l.45,0c.46-.05.91-.1,1.32-.18v0c.67-.08,1.33-.22,2-.34l2-.47c.11-.07,0-.1.11-.16s.15,0,.17,0,0,.06,0,.06a1.21,1.21,0,0,0,.44-.12h-.13A.44.44,0,0,1,59,93s.07,0,0,.08c.24-.19.22,0,.44-.13,0-.11.28-.27.45-.39H60c-.13,0,0,.06-.13.11a3.06,3.06,0,0,1,.38-.14v-.07c.08,0,.11,0,.2,0l-.08.06.16-.08s.17,0,.16,0,.15-.09.27-.16c-.15,0,0-.07,0-.07l-.17,0c.22-.06-.06,0,0,.09s.09-.16-.07-.08a3.42,3.42,0,0,0,.42-.23c-.11.06,0,0,0,0s0,0,0,0,.19,0,.25-.07,0,.06,0,.06-.32.08-.24.21a.91.91,0,0,1-.24.15.7.7,0,0,0,.35-.09l0-.08c.09,0,.08-.09.08-.09h.13c.12,0,.12-.12.27-.19a1.51,1.51,0,0,1-.3,0c0-.06.08,0,.14-.07l0,0,.09,0c.17,0,0,.09.15.06a.63.63,0,0,1,.18-.08h0c.08,0,.16-.07.17-.13s.07,0,.09-.06.12-.13.21-.1h0a.81.81,0,0,1,.19,0l.16,0v.07c.14-.09.12-.11.19-.21a.82.82,0,0,0,.35-.17l.06,0h-.07c.11-.06.09-.07.16-.11h0l0,0,0,0h0a.8.8,0,0,1,.22-.13h0s.17,0,.16,0l.05,0h0l0,0,.15-.06a.18.18,0,0,0,.08,0h.09c.21,0,.25-.17.47-.21,0-.06-.08,0-.08,0s.1-.14.14-.19.39-.08.39,0c.15-.09-.07,0,0-.09h0a.21.21,0,0,1-.15,0s.09-.12.09-.12l.05,0c.12-.1,0-.16.11-.26s.08,0,.08,0l.16,0,0,0c.06-.06.06-.1.17-.15,0,.08.18-.06.1,0s0-.1,0-.1,0,0,0,0,.06-.1.12-.15,0,.06.08,0,0-.08.1-.08l.13-.09s-.14,0-.13,0a.56.56,0,0,1,.15-.11l-.07,0c0-.11.16,0,.25-.13a.83.83,0,0,0-.08.12l.19-.2h.12s.1-.07.07-.1c.13-.06,0,.1,0,.14.16-.08.07-.14.24-.18V89l.13-.1-.06,0c0-.09.17-.19.1-.26l-.06,0c.08-.09.11-.18.2-.21l0,.13c.09-.06,0-.14.12-.2s-.08,0-.06,0l-.19.1.07,0s0,0,0,.07-.06,0-.06,0c-.17.08,0,.09-.11.17h0c0,.07-.14.14-.12.19l-.21.14c-.09-.11.22-.15.25-.26s0-.08,0-.12l-.17.19s-.13,0-.13,0h0c-.07.07,0,.1-.1.13a.23.23,0,0,1,0,0c-.08,0,0,0,0,0s0,0-.1,0-.13.07-.2.11-.21.25,0,.22l-.13.15,0-.19.14-.08c-.08-.07-.25.22-.39.18a.49.49,0,0,1-.2.08l.06.06h-.13l-.07,0s0,0,0,0l-.09,0s-.06.06-.06.06l0,0,0,0s0,0,0,.06l.07,0a1,1,0,0,1-.39.15l0-.07a.3.3,0,0,0-.14.1s0,0,0,0h-.15c0,.07-.14.11-.14.11a.19.19,0,0,0,.1,0c0,.07-.06.14-.12.13s-.15,0,0-.1a.24.24,0,0,1-.16.12h-.09s.11-.09.11-.09l-.08,0c0-.06.25-.14.34-.25l-.25.1a6.2,6.2,0,0,0-.91.59h0v0h0l0,.06-.31,0s.07,0,.09,0L63,91s0-.06,0,0,0,0,0,0-.15,0-.16,0l.06,0s-.11,0,0,0l-.09,0v-.07c-.15.09-.19.2-.32.28s0-.09,0-.07-.19.18-.31.24.06,0,.09-.07l-.53.2a3.05,3.05,0,0,1-.54.14l-.07.1h-.11a5.59,5.59,0,0,0-1,.4c-.1,0-.08,0-.08,0-.32.06-.35.17-.58.25,0,0,.06-.12,0-.09a.26.26,0,0,0,0,.07l0,0-.24.06a1.66,1.66,0,0,0-.55.32c-.2.06,0-.08,0-.08s.05,0,.07-.09l-.15.08a.72.72,0,0,0-.28.07l0,0c-.08,0-.28.07-.29,0L56.17,93c-.08,0,.07,0,.07,0-.16.1-.14,0-.24.08l0,0a2.35,2.35,0,0,0-.43.19s-.13,0,0-.06c-.07,0-.19-.17-.23-.11l.11.16-.09,0-.15-.06.09,0c0-.08-.2,0-.13-.09-.13,0,0,0,0,.07h0a.19.19,0,0,0-.11.1l-.25.08h-.16l0,0-.12,0c0-.08,0,0,0-.07h-.1l0,.08a.46.46,0,0,1-.35.16c-.11,0,.1-.06.1-.06-.29-.05-.31.13-.46.14s-.16.05-.33.08c0-.05-.13,0-.13,0l0-.08-.09,0s-.23.08-.35.12l0,0-.22.08a.45.45,0,0,0-.33.12s-.06-.09-.05-.14h.18c.19,0,.33-.18.52-.17s-.13,0-.22,0h0c.06,0,.17-.06.19-.12s-.07.13-.22.09a.17.17,0,0,1-.19,0c-.14,0-.13.13-.31.13l.07-.07c-.19,0-.08.09-.27.1l.07.06-.29,0a.08.08,0,0,0,0,0,.42.42,0,0,1,.26,0l.07-.07c.1,0,.12.07.06.11h.07c0,.1-.12,0-.15.06h.07c0,.06-.17.06-.17.06s-.29,0-.31-.07l.15,0-.26,0h0s0,0-.05,0l-.24,0v0l.11,0c-.15.05-.19,0-.19,0s.11,0,.11,0-.08,0-.08,0,0,0,.06-.11a.93.93,0,0,1-.29,0s.14,0,.14,0l-.09-.06c.2,0,0-.09,0-.09s.05,0,.05,0l-.08.09-.12,0s.12-.08,0-.11l-.12,0,0,.06a1.11,1.11,0,0,1-.2.13l-.14,0c-.16.06-.37.06-.53.12.11,0,0-.08,0-.08l.05-.14s-.13.07-.09.09a.21.21,0,0,1-.19,0c-.06,0,0-.07,0-.07-.16,0-.06.06-.06.06l-.14,0-.17.05c-.08-.09-.24,0-.22-.08-.18,0,0,0,0,.08a.42.42,0,0,1-.22,0s.05,0,.05,0v0a.38.38,0,0,1-.37.08l.1-.08s-.21,0-.11,0l-.2,0-.2.07a.49.49,0,0,1-.2-.06,7.78,7.78,0,0,0-.79-.06h0c-.2,0,.08.08-.13.07,0-.08-.12-.06-.12-.06a.88.88,0,0,0-.51,0c-.23-.09-.22-.1-.22-.1l-.44-.07h0a1.13,1.13,0,0,0-.5,0l-.22-.06a.89.89,0,0,0-.45,0c-.14-.1-.11,0-.3-.1h0a.82.82,0,0,0-.17-.05,2.15,2.15,0,0,1-.66,0c0-.1.16,0,.18-.07a.24.24,0,0,0-.1,0c0-.07-.06-.06,0-.09l-.24,0,.06,0c-.07.06-.26,0-.38,0s.16.07.1.1-.24,0-.24,0c-.27-.08,0,0,0-.13l-.07-.09c-.06-.07-.18,0-.3-.05v0a2,2,0,0,1-.51-.07l.07,0a.31.31,0,0,0-.17,0l0-.1c-.1.08-.4,0-.52,0s0-.07,0-.08a.34.34,0,0,1,.14.06.24.24,0,0,0-.08-.09c-.09,0-.31,0-.37,0s-.12-.09-.08-.13c-.28-.06.09.2.09.2-.44-.2-.15-.12-.34-.21h0c-.1-.18-.13.06-.13.06-.16-.14,0-.07-.13-.16a.72.72,0,0,1-.39,0l0,0-.37-.12h0c-.16-.08-.09,0-.21-.08l-.05,0a.48.48,0,0,0,.29.12c-.1,0,.11.14,0,.18l0,0a3.46,3.46,0,0,0,.79.43c.21,0,.31.14.53.16.06-.08.05,0,.05,0l.2.11h.13s.24.16.34.12,0,0-.06,0,.09,0,.12,0h0l.43.14c0-.07.18,0,.27,0s.09.05.09.05H43c.1,0,.12.08.12.08l.1,0a1.55,1.55,0,0,1,.39.15c.84,0,1.23.35,2.11.4.06,0,0,0,0-.09l.18,0-.05,0h-.12v0h-.14a.14.14,0,0,0,.1-.08l0,0h.15C46,94,46,94,46,94l.24.06a.34.34,0,0,1,.28,0c0,.06-.13,0-.2.06l.08,0,0,0,.12,0h.06v0l.09,0c-.06,0,.08,0,.06.08a1.74,1.74,0,0,1,.63,0s.09-.08.09-.08.14,0,.1.06l.11,0a.3.3,0,0,0,.25,0l.19.06a.5.5,0,0,1,.25,0l0,0c.13,0,.1-.09.24,0s-.08-.09-.09-.13.18.07.18.07l.06,0,.1,0s0,.06,0,.09.2,0,.31,0l0,0h.14a.68.68,0,0,1,.22,0l0,.09.06,0c.14,0,.17,0,.17,0C50,94.37,50.19,94.56,50.37,94.45Zm13.84-3.77h0S64.24,90.62,64.21,90.68Zm-1,.5c.11-.09.08,0,.08,0a.84.84,0,0,1-.29.13l.05,0c-.05,0-.1,0-.13,0S63.25,91.19,63.18,91.18Zm2.11-1.51v0h0Zm-.56.4h0Zm-1.23.55a.35.35,0,0,0-.14.06Zm-8,2.69.11-.06a.31.31,0,0,1-.17,0l0,.05ZM51.53,94v-.08h0s0,0,0,0a.26.26,0,0,0-.09,0C51.44,94,51.37,94,51.53,94Z"/><path class="cls-4" d="M52.83,93.55h0Z"/><path class="cls-4" d="M51.45,93.92l.08,0S51.5,93.92,51.45,93.92Z"/><path class="cls-4" d="M67.32,88.75l0,0,.09,0a.21.21,0,0,0,.07-.2c-.08.11-.15.13-.26.23Z"/><polygon class="cls-4" points="67.09 88.53 67.01 88.53 67.01 88.57 67.09 88.53"/><path class="cls-4" d="M65.71,89.27l.12,0S65.7,89.22,65.71,89.27Z"/><path class="cls-4" d="M66.44,89.38l0,0a.48.48,0,0,0-.13,0C66.42,89.36,66.38,89.42,66.44,89.38Z"/><path class="cls-4" d="M65.42,89.44c0,.06-.12,0-.11.1S65.44,89.49,65.42,89.44Z"/><path class="cls-4" d="M65.76,89.84l.17-.08C65.88,89.8,65.77,89.79,65.76,89.84Z"/><path class="cls-4" d="M64.93,89.92s0-.06.08-.09a.13.13,0,0,0,0,0,.63.63,0,0,1,.12-.11h-.21C64.88,89.84,64.84,89.92,64.93,89.92Z"/><path class="cls-4" d="M65.6,90a.71.71,0,0,0,.19-.06.15.15,0,0,0-.15,0v-.05S65.71,89.89,65.6,90Z"/><path class="cls-4" d="M64.55,90h0c.06-.07.17-.11.19-.18A.83.83,0,0,0,64.55,90Z"/><path class="cls-4" d="M65.28,90l0,.07c.08,0,0,0,0,0l.1-.07C65.29,90.08,65.35,90,65.28,90Z"/><path class="cls-4" d="M65.05,90.26l-.09.08.11,0C65.18,90.27,65.06,90.32,65.05,90.26Z"/><path class="cls-4" d="M64.9,90.29h0l-.11.16A.91.91,0,0,0,64.9,90.29Z"/><path class="cls-4" d="M62.78,90.9s.11,0,.11,0S62.7,90.91,62.78,90.9Z"/><path class="cls-4" d="M63.39,91.19a1.6,1.6,0,0,0-.25.15C63.21,91.29,63.42,91.21,63.39,91.19Z"/><path class="cls-4" d="M63.12,91.36l0,0S63.12,91.35,63.12,91.36Z"/><path class="cls-4" d="M60.29,92.66v0Z"/><path class="cls-4" d="M60.36,92.62a.54.54,0,0,0,.13-.06.62.62,0,0,0-.2.1S60.37,92.66,60.36,92.62Z"/><path class="cls-4" d="M59.68,92.84s.08,0,.06-.06Z"/><path class="cls-4" d="M54.88,93.19s-.11,0-.08,0S54.83,93.21,54.88,93.19Z"/><polygon class="cls-4" points="54.71 93.27 54.7 93.25 54.65 93.23 54.71 93.27"/><path class="cls-4" d="M54.25,93.29l0,0Z"/><path class="cls-4" d="M54.29,93.27h0Z"/><path class="cls-4" d="M54.32,93.27v0l0,0Z"/><path class="cls-4" d="M54.12,93.3l.09,0c.09,0-.11,0,0-.1Z"/><path class="cls-4" d="M53.81,93.35s-.19.1-.25,0c-.23.07.07.12-.2.18.26,0,.11-.15.11-.15A1.63,1.63,0,0,0,53.81,93.35Z"/><path class="cls-4" d="M53.86,93.47s-.09,0-.09,0S53.83,93.51,53.86,93.47Z"/><polygon class="cls-4" points="53.35 93.44 53.27 93.42 53.26 93.45 53.35 93.44"/><path class="cls-4" d="M53.08,93.46l.06,0S53,93.44,53.08,93.46Z"/><path class="cls-4" d="M52.69,93.45s-.12.1,0,.06h0S52.6,93.47,52.69,93.45Z"/><polygon class="cls-4" points="51.81 93.66 51.9 93.63 51.78 93.66 51.81 93.66"/><path class="cls-4" d="M51.85,93.9s.12,0,.12,0Z"/><path class="cls-4" d="M51.67,93.59a.08.08,0,0,1,.08,0S51.68,93.56,51.67,93.59Z"/><path class="cls-4" d="M51.47,93.62l0,0s-.18,0-.23,0,.06.09,0,.12c.14,0,.21-.14.28-.06l.12-.11C51.51,93.54,51.54,93.63,51.47,93.62Z"/><path class="cls-4" d="M51.76,93.8l-.08,0a.19.19,0,0,1-.08.06C51.63,93.9,51.72,93.8,51.76,93.8Z"/><polygon class="cls-4" points="50.69 93.71 50.61 93.72 50.53 93.73 50.58 93.73 50.63 93.73 50.69 93.71"/><polygon class="cls-4" points="50.59 93.69 50.58 93.67 50.46 93.71 50.59 93.69"/><polygon class="cls-4" points="50.41 93.67 50.44 93.67 50.52 93.65 50.41 93.67"/><path class="cls-4" d="M50.08,93.65l0,0s.12,0,.11,0A.18.18,0,0,1,50.08,93.65Z"/><path class="cls-4" d="M49,94.45s0,0,0,0l-.07,0Z"/><path class="cls-4" d="M48.76,94.37l-.12,0,.28,0a.87.87,0,0,1-.19,0Z"/><path class="cls-4" d="M46.34,94.14s0,0,0,0l-.28,0s-.09.06,0,0h.16l0,0C46.25,94.18,46.22,94.1,46.34,94.14Z"/><path class="cls-4" d="M40.28,92.37v-.05C40.18,92.31,40.3,92.38,40.28,92.37Z"/></g><g class="cls-6"><path class="cls-4" d="M59.08,3.1c.07,0,0,0,0,0Z"/><path class="cls-4" d="M59,3.07l0,0Z"/><path class="cls-4" d="M58.66,2.87s.19.09.28,0C58.87,2.82,58.72,2.78,58.66,2.87Z"/><polygon class="cls-4" points="58.77 2.97 58.81 2.93 58.69 2.97 58.77 2.97"/><polygon class="cls-4" points="58.81 3.03 58.81 3.01 58.66 3 58.81 3.03"/><path class="cls-4" d="M58.37,2.71l.1,0c.06.09-.09,0,0,.11s.09-.1.22,0-.22-.08-.22-.08C58.37,2.58,58.45,2.71,58.37,2.71Z"/><path class="cls-4" d="M52.72,1.6v0Z"/><path class="cls-4" d="M51.17,1.41l-.06,0a0,0,0,0,1,0,0Z"/><path class="cls-4" d="M53.72,1.62l.05,0Z"/><polygon class="cls-4" points="43.74 0.6 43.75 0.57 43.74 0.57 43.73 0.6 43.74 0.6"/><path class="cls-4" d="M49.42,1.36h0Z"/><polygon class="cls-4" points="54.27 1.75 54.25 1.74 54.27 1.75 54.27 1.75 54.27 1.75"/><path class="cls-4" d="M51.65,1.62l0,0Z"/><path class="cls-4" d="M57,2.1l-.08,0A.11.11,0,0,0,57,2.1Z"/><path class="cls-4" d="M56.48,1.93h0Z"/><path class="cls-4" d="M56.14,1.8h0Z"/><path class="cls-4" d="M57,2.08s0-.16-.1-.06V2h-.12v0l.05,0C56.85,2.14,56.91,2.09,57,2.08Z"/><path class="cls-4" d="M52.73,1.57Z"/><path class="cls-4" d="M53.23,1.57l0,0Z"/><path class="cls-4" d="M55,2h0Z"/><path class="cls-4" d="M53.14,1.54h0Z"/><path class="cls-4" d="M54.48,1.82h0Z"/><path class="cls-4" d="M36.16,1.41h.11c0-.1-.17,0-.07-.06l-.08,0,.07.07C36.25,1.42,36.14,1.45,36.16,1.41Z"/><path class="cls-4" d="M43.26.46h0a.28.28,0,0,1,0,0c-.1,0,0,.12-.1.19h.07A.31.31,0,0,1,43.26.46Z"/><path class="cls-4" d="M43.24.61h0l0,0h0S43.26.62,43.24.61Z"/><path class="cls-4" d="M37.38,1.15h0S37.39,1.14,37.38,1.15Z"/><path class="cls-4" d="M49.62.34l.06,0Z"/><path class="cls-4" d="M44.15.48h0Z"/><path class="cls-4" d="M41.34,1.53c0-.1,0,0-.09,0l0,.06Z"/><polygon class="cls-4" points="36.11 1.4 36.11 1.41 36.12 1.41 36.11 1.4"/><path class="cls-4" d="M39.67,1.81l0,0Z"/><path class="cls-4" d="M43.59.63h.22l-.07,0S43.61.57,43.59.63Z"/><path class="cls-4" d="M42.26,1.48l0,.06c.2-.14.46,0,.62-.19.28.17.15-.19.41,0l0,0h1.22c.4,0,.79,0,.79,0l.37,0,1.77,0a14.67,14.67,0,0,1,1.75.1c.12,0,.06-.13.16-.16h.14l-.08.13.42,0-.09-.07h.16v.12c.27-.13.19.09.4.05s.34-.2.52-.28l.09.05c-.12,0,0,.1-.16.07.12.06.24,0,.36,0l0-.09a.1.1,0,0,1,.07.1v.05a.07.07,0,0,0,.11,0,.39.39,0,0,0,.18.08.52.52,0,0,0,.25,0c-.11-.08,0-.07,0-.12h-.15c.2.06-.07,0-.06.1-.09-.07.15-.14,0-.15a1.2,1.2,0,0,0,.43,0l0-.1.07.11a.17.17,0,0,0,.19,0c.12.06,0,.08,0,.13s-.35-.15-.35.07a.27.27,0,0,0-.16.06s.09.1.21.07l0-.11a.11.11,0,0,0,.11-.07l.13.11,0,0a1.13,1.13,0,0,1,.29-.07.83.83,0,0,1-.23-.15h.15v0l.07,0c.14.06,0,.12.08.18s.11,0,.17,0h0c.08,0,.16,0,.19,0s.07,0,.1,0,.16-.07.21,0h0a.74.74,0,0,1,.15.08l.12.08,0,.08a1.08,1.08,0,0,0,.25-.09.72.72,0,0,0,.28.07h.12l0,0h.24a0,0,0,0,1,0,0v0c.07.11.15,0,.23,0h0s.09.15.13.09h0l0,0,0,0,.06,0,.13.05h.09V2s0,0,0,0c.14.16.27,0,.43.16,0,0,0-.08,0-.08L55.61,2c.06.1.29.23.21.32.15.06,0-.07,0-.07h.1l-.09-.13c0-.06.13,0,.17,0l0,.08a.14.14,0,0,0,.16-.13c.2,0,.12.07.12.15l.12,0,0,.06c.07,0,.11,0,.2,0s.14.11,0,.15.11-.07.11,0l-.06-.08c0-.11.13,0,.13,0s0,0,.09.1.08,0,.12,0,.09,0,.13,0l-.1-.1a.42.42,0,0,1,.22,0l0,0c.11-.07.11.1.23.11l-.14,0,.25,0,.07.11s.09,0,.09,0-.08,0-.08,0,.11,0,.21.13l-.06,0,.13.06,0,0c.07-.11.24,0,.27-.13l-.06,0c.1,0,.2,0,.26,0s-.08.07-.08.07l.19,0,0-.1-.17,0,0,0-.08,0c-.09,0,0-.07,0-.07s-.07.09-.19,0v0s-.17,0-.22,0c0-.1-.16,0-.2-.09s.22.09.33,0a.59.59,0,0,1,.11-.1H57.7s0-.14-.11-.09h0l-.16,0,0-.06-.13,0s.06-.07,0-.11l-.19-.08c0,.12-.31.05-.2.19l-.18,0s.15-.11.14-.21l.13.05c0-.13-.31,0-.34-.18a.39.39,0,0,1-.17-.12l0,.12a.2.2,0,0,1-.06-.13l-.11-.05h.06c0-.08,0-.07,0-.07h-.15l.05,0-.08,0h-.05a.24.24,0,0,0,.06.15c-.14-.1-.28-.1-.39-.24s.09-.05.09-.05l-.19,0h0l0-.08,0,0c0,.08-.17,0-.21,0l.11,0-.14.1c.09-.09-.11-.19,0-.17-.08-.14-.08.06-.19,0l-.06-.06c0-.07.13,0,.13,0l-.07,0c.07,0,.26.06.26.06l-.09-.15c-.33,0-.7-.21-1-.12h0s0,0,0,0h0l-.06,0c-.05-.08-.15-.11-.24-.18l0,.06c0,.11,0,.13-.13.09a0,0,0,0,0,0-.08,0,0,0,0,1,0,.05c-.08,0-.17-.07-.16-.11l.06,0V1.08h-.09c0-.05.05-.06.05-.06-.18,0-.27.06-.42.06l0-.09c-.1-.06-.24.06-.24.06l0,0a6.6,6.6,0,0,1-1-.32l-.1.09L52,.7a2.8,2.8,0,0,0-1-.11.58.58,0,0,0-.1-.12c-.24,0-.31.08-.53.08V.42s0,.07-.09,0l0,0a.08.08,0,0,0-.11,0,.91.91,0,0,0-.7.11V.39c.13,0,.1,0,.12,0s-.15,0-.18,0a.31.31,0,0,0-.23,0s.08,0,.08,0S49,.37,49,.27c-.46,0-1-.07-1.44-.07-.09,0,.06,0,0,.06s-.1,0-.2,0l.05-.05L47,.35c0-.06-.11,0-.11,0s0-.31-.08-.26l.08.27-.09,0L46.61.22c0-.07.08,0,.08,0s-.13-.07,0-.17c-.12,0,0,.06,0,.06h-.18l.08,0a.21.21,0,0,1-.23.05l-.12.11c0-.09-.09,0-.09,0l0-.07a.5.5,0,0,1-.16,0A.08.08,0,0,0,46,.09l-.1,0s0,.09,0,.11a.33.33,0,0,1-.33.17c-.1-.08.1-.07.06-.16-.23,0-.27.23-.39.22a1.81,1.81,0,0,1-.32,0s-.12,0-.14-.1l.06-.06-.09,0c0,.07-.21.07-.21.07l-.09.12-.3.06c-.14,0-.1.09-.2.17a.15.15,0,0,1-.06-.13s.12-.07.18-.05a1,1,0,0,1,.48-.19c.07-.17-.13,0-.21,0l0,0h0s.17,0,.18-.13-.07.16-.2.1-.18-.06-.18-.06a.18.18,0,0,0-.12.18L44,.22l-.24.14.06.09a.33.33,0,0,1-.26,0V.55c.1.07.15-.06.24,0l.06-.1.06.15h.06c0,.14-.11,0-.13.08h.07c0,.09-.15.09-.15.09-.18,0-.27-.05-.29-.12l.13,0c-.07,0-.16.05-.16.05l-.1,0v0a.08.08,0,0,1,0,0,1,1,0,0,1-.23,0l0,0v0s.14,0,.11.08A.8.8,0,0,1,43,.65c0-.09.13,0,.13,0S43,.6,42.86.56c0-.11.17,0,.19-.11a.53.53,0,0,1-.25.06s.12-.07.1-.13l-.08,0L42.93.2c-.08,0-.09.09-.2,0s.12.11,0,.16h-.11l0-.16-.11.05,0,.08a1.1,1.1,0,0,1-.17.18.12.12,0,0,1-.13,0c-.13.1-.33.12-.46.22.09-.06,0-.1-.08-.14s.1-.12.09-.18l-.07.15a.14.14,0,0,1-.17,0s0-.1,0-.14,0,.12-.16.12v0s-.14,0-.15.09c-.1-.12-.22,0-.22-.08-.16.06,0,.06,0,.11l-.23,0,.11,0,0-.08a.34.34,0,0,1-.33.17c.1-.07,0-.07.07-.14s-.19,0-.09.07h-.18a.57.57,0,0,0-.17.14L40,.73c-.21.09-.44,0-.67.13h0L39.25,1c0-.11-.13-.05-.2-.09a.54.54,0,0,0-.39.15c-.22,0-.22-.07-.22-.07l-.4.07V1a1.48,1.48,0,0,0-.68.19l0-.07s-.32,0-.39.16c-.17-.07-.09,0-.3,0,0,0,0,0,0,0l-.26,0a.39.39,0,0,0-.2.25c-.3-.11-.11-.05-.14-.15a.17.17,0,0,1-.14.05.13.13,0,0,1,0-.08l-.17.17.07,0c0,.1-.23.08-.23.08a.12.12,0,0,1,0,.12L35.41,2c-.15,0,.07-.14,0-.23s-.11-.08-.06-.13-.2.12-.31.17v0c-.16.05-.29.22-.44.21h.08a.34.34,0,0,1-.1,0s-.16,0-.12,0c0,.16-.34.18-.37.34l0-.12c.11,0,.15,0,.19-.08a.38.38,0,0,1-.16,0c-.05.07-.23.17-.25.27s-.13,0-.14-.1c-.23.13.2.18-.08.27s.09-.14.09-.14l-.15,0c-.19-.14,0,.17,0,.17-.2-.06-.07-.07-.2-.11a.3.3,0,0,0-.12.24l-.15,0a1.09,1.09,0,0,1-.25.07h-.06s-.05.08-.2.05l0,.06c.07,0,.22,0,.27-.06,0,.08.18.08.17.18V3a1.21,1.21,0,0,0,.54,0c.42-.2.58-.09.74-.23,0-.12,0,0,0,0l.22,0s0-.07.09-.08.27.06.32,0l0,.08c.06,0,.06-.07.06-.07l0,0a1,1,0,0,1,.24,0,.33.33,0,0,1,.29-.12l.2,0,.06-.11c.06-.1.13,0,.22-.05l0,0a.5.5,0,0,1,.38,0C37,2,37.46,2.21,38.2,2a.12.12,0,0,1,0-.12l.16,0c-.07,0-.05,0-.05,0l-.1,0v0l-.12.06.16-.13,0,0,.13,0c.06,0,0,0,0,0l.25,0a.19.19,0,0,1,.23-.05c0,.09-.1.05-.13.14l.08,0V1.87h.1l.06,0v0L39,1.82c0,.07.08,0,.08.08.26,0,.3-.17.54-.11,0,0,0-.12,0-.12s.13,0,.13,0l.07,0c.13.11.23,0,.4,0v0l.21-.09v.07c.11,0,.06-.16.06-.16s0-.07,0-.13.18.05.14,0c.12-.05.09,0,.1,0l.07-.05s0,.08,0,.13a.15.15,0,0,1,.17-.05l.06,0h.13a.35.35,0,0,1,.29-.06l-.06.1c.08,0,0,0,.05-.06a.51.51,0,0,1,.21.06C41.91,1.41,42.12,1.64,42.26,1.48ZM55,2V2ZM54,1.7l.08.05c-.11-.05-.18,0-.28-.09a.05.05,0,0,1,0,.05s-.07,0-.08-.07S54,1.77,54,1.7Zm2.36.14v0h0Zm-.61-.09,0-.05S55.7,1.75,55.72,1.75Zm-1.16-.44a.12.12,0,0,0-.08-.05S54.48,1.3,54.56,1.31ZM46.87.41s.11-.06,0-.09-.09,0-.09,0l0,0ZM43.25.85s0-.08,0-.11h0a0,0,0,0,1,0,0h-.08C43.18.83,43.11.86,43.25.85Z"/><path class="cls-4" d="M44.43.24h0Z"/><path class="cls-4" d="M43.18.7l.07,0Z"/><path class="cls-4" d="M58.08,2.92h0l0,.06.21-.09L58,2.82Z"/><polygon class="cls-4" points="58.17 2.5 58.14 2.42 58.11 2.45 58.17 2.5"/><path class="cls-4" d="M56.88,1.84l.11.07S56.92,1.78,56.88,1.84Z"/><path class="cls-4" d="M57.15,2.64l.06,0a.3.3,0,0,0-.1-.07S57.09,2.62,57.15,2.64Z"/><path class="cls-4" d="M56.6,1.73c-.06.06-.11-.07-.15,0S56.56,1.8,56.6,1.73Z"/><path class="cls-4" d="M56.44,2.45l.16.08C56.54,2.51,56.49,2.41,56.44,2.45Z"/><path class="cls-4" d="M55.94,1.75s.07,0,.11,0l-.06,0h.18A.79.79,0,0,0,56,1.66Z"/><path class="cls-4" d="M56.28,2.41l.14.11-.09-.12.05,0C56.32,2.28,56.38,2.44,56.28,2.41Z"/><path class="cls-4" d="M55.66,1.52l0,0,.26,0A.7.7,0,0,0,55.66,1.52Z"/><path class="cls-4" d="M56,2.2l0,.08,0,0,.05,0C56,2.25,56.13,2.19,56,2.2Z"/><polygon class="cls-4" points="55.74 2.23 55.63 2.23 55.69 2.35 55.74 2.23"/><path class="cls-4" d="M55.64,2.13v0l-.19.08A.58.58,0,0,0,55.64,2.13Z"/><path class="cls-4" d="M53.89,1.08s.06.1,0,.06S53.82,1,53.89,1.08Z"/><path class="cls-4" d="M54.1,1.86h-.26S54.1,1.91,54.1,1.86Z"/><path class="cls-4" d="M53.81,1.87h0Z"/><path class="cls-4" d="M51.1,1.57h0Z"/><path class="cls-4" d="M51.17,1.55s.13,0,.15,0a1.36,1.36,0,0,0-.22.05Z"/><path class="cls-4" d="M50.55,1.46l.07,0Z"/><path class="cls-4" d="M46.35.09c-.06,0-.1,0-.09.05Z"/><polygon class="cls-4" points="46.18 0.15 46.18 0.13 46.14 0.09 46.18 0.15"/><path class="cls-4" d="M45.75.08l0,0Z"/><path class="cls-4" d="M45.79.05h0Z"/><polygon class="cls-4" points="45.82 0.07 45.83 0.04 45.79 0.05 45.82 0.07"/><path class="cls-4" d="M45.63.08l.09.08c.07,0-.1,0,0-.13Z"/><path class="cls-4" d="M45.35.1s-.19.12-.24,0l-.19.21c.23,0,.11-.19.32-.14C45.14.12,45.31.13,45.35.1Z"/><path class="cls-4" d="M45.38.28c0-.06-.08-.06-.11,0S45.35.33,45.38.28Z"/><polygon class="cls-4" points="44.92 0.16 44.85 0.12 44.83 0.16 44.92 0.16"/><path class="cls-4" d="M44.66.14l.07-.05Z"/><polygon class="cls-4" points="44.3 0.09 44.32 0.17 44.29 0.18 44.3 0.09"/><path class="cls-4" d="M43.49.36s.1,0,.08,0l-.11,0Z"/><path class="cls-4" d="M43.54.68c0,.08.1,0,.1,0Z"/><path class="cls-4" d="M43.35.25h0Z"/><path class="cls-4" d="M43.17.29a.08.08,0,0,0,0-.06l-.21,0A.92.92,0,0,1,43,.38s.14-.15.22,0l.1-.15S43.25.3,43.17.29Z"/><path class="cls-4" d="M43.45.54l-.07,0a0,0,0,0,1,0,.06C43.34.68,43.41.56,43.45.54Z"/><polygon class="cls-4" points="42.46 0.42 42.31 0.46 42.36 0.46 42.46 0.42"/><polygon class="cls-4" points="42.36 0.4 42.36 0.37 42.25 0.44 42.36 0.4"/><polygon class="cls-4" points="42.21 0.38 42.22 0.38 42.3 0.34 42.21 0.38"/><path class="cls-4" d="M41.9.4l0,0,.1,0S41.93.43,41.9.4Z"/><path class="cls-4" d="M41,1.63s0-.06,0-.08l0,.08Z"/><path class="cls-4" d="M40.84,1.54l-.09.09c.13,0,.13-.07.13-.07s0,0-.06,0Z"/><path class="cls-4" d="M38.72,1.83c0-.05,0,0,0,0l-.25.05v.08l.12-.06v0A.17.17,0,0,1,38.72,1.83Z"/><path class="cls-4" d="M33.12,2.76l0-.07Z"/></g><g class="cls-6"><path class="cls-4" d="M1.07,35.58c-.07,0,0,0,0,0Z"/><path class="cls-4" d="M1.05,35.62l0,0Z"/><path class="cls-4" d="M1,35.94a.15.15,0,0,1,0-.16C.85,35.79.87,35.91,1,35.94Z"/><polygon class="cls-4" points="1.02 35.84 0.97 35.82 1.04 35.89 1.02 35.84"/><polygon class="cls-4" points="1.07 35.8 1.05 35.81 1.09 35.91 1.07 35.8"/><path class="cls-4" d="M.88,36.19v-.08c.08-.06.08.06.13,0S.88,36.08.92,36s0,.18,0,.18S.86,36.14.88,36.19Z"/><path class="cls-4" d="M1,40.73v0Z"/><path class="cls-4" d="M1,42A.12.12,0,0,0,1,42H1Z"/><path class="cls-4" d="M.86,40l0-.05Z"/><polygon class="cls-4" points="0.71 47.86 0.68 47.85 0.68 47.86 0.71 47.87 0.71 47.86"/><path class="cls-4" d="M1.17,43.35v0Z"/><polygon class="cls-4" points="0.87 39.51 0.87 39.53 0.88 39.51 0.87 39.51 0.87 39.51"/><path class="cls-4" d="M1.16,41.57v0S1.16,41.59,1.16,41.57Z"/><path class="cls-4" d="M.64,37.33v0Z"/><path class="cls-4" d="M.61,37.77Z"/><path class="cls-4" d="M.57,38.05h0Z"/><path class="cls-4" d="M.64,37.38a.39.39,0,0,1-.16,0l.15.05s0,.08,0,.08l0,0,0-.07Z"/><path class="cls-4" d="M1,40.73s0,0,0,0Z"/><path class="cls-4" d="M.89,40.35v0Z"/><path class="cls-4" d="M1,38.91H1Z"/><path class="cls-4" d="M.88,40.42v0Z"/><path class="cls-4" d="M.91,39.34h0Z"/><polygon class="cls-4" points="1.28 53.81 1.29 53.74 1.22 53.79 1.27 53.86 1.34 53.79 1.28 53.81"/><path class="cls-4" d="M.58,48.24v0a.07.07,0,0,0,0,.06l.2,0v0S.63,48.26.58,48.24Z"/><polygon class="cls-4" points="0.73 48.25 0.73 48.25 0.75 48.23 0.76 48.2 0.73 48.25"/><path class="cls-4" d="M1.1,52.86v0Z"/><path class="cls-4" d="M.13,43.27a.08.08,0,0,0,0,0Z"/><path class="cls-4" d="M.59,47.54v0Z"/><path class="cls-4" d="M1.64,49.71c-.1,0,0,0,0,.07l0,0A.89.89,0,0,0,1.64,49.71Z"/><polygon class="cls-4" points="1.25 53.86 1.27 53.86 1.27 53.86 1.25 53.86"/><path class="cls-4" d="M1.87,51v0Z"/><path class="cls-4" d="M.74,48l0-.17v0C.76,47.88.68,48,.74,48Z"/><path class="cls-4" d="M1.59,49l.06,0-.18-.49c.18-.22-.19-.11,0-.32h0a10.24,10.24,0,0,0-.14-1.86h0c0-.47,0-.93-.06-1.39S1.2,44,1.2,43.52A.4.4,0,0,1,1,43.41a.38.38,0,0,0,0-.11c.08.06.12,0,.12,0s.07-.21.07-.21l-.13,0V43h.12c-.16-.2.06-.15,0-.32S1,42.4,1,42.4l-.06-.21c0,.09.1,0,.09.12,0-.1,0-.2,0-.29l-.1,0c0-.06.09-.06.1-.13l0,.06s0-.08,0-.12l.13-.09c-.07-.09,0-.12-.08-.22-.06.1-.07,0-.11,0l0,.11c0-.16,0,0,.09,0s-.15-.11-.14,0c0-.15,0-.18-.07-.33,0,.09-.06,0-.09,0,0-.12,0,0,0,0a.29.29,0,0,1,.11-.11c0-.17,0-.05,0-.1s-.09.29.12.26a.44.44,0,0,1,.07.2c0-.07.1-.16.06-.24H1.09L1,41.2s.08,0,.08-.07,0,0,0,0S1,41.05,1,40.93a.55.55,0,0,1-.12.19c-.08,0,0,0,0-.11h0l0-.05c0-.12.11,0,.15-.08s0-.09,0-.09l0,0a0,0,0,0,0,0,0H1a.21.21,0,0,1,0-.12l-.09-.1s-.1-.12,0-.16h0a.76.76,0,0,1,0-.14l.06-.1h.09c0-.11-.07-.1-.15-.18a.36.36,0,0,0,0-.22.93.93,0,0,0,0-.1l0,0c0-.08,0-.08,0-.13v0a.1.1,0,0,0,0,0,0,0,0,0,1,0,0h0c.09-.07,0-.11,0-.19v0a.51.51,0,0,1,.14-.09L1,39.18l0,0,0,0,0,0L1,39V39H1s0,0,0,0,0-.21.08-.35l-.1,0-.1-.16A.89.89,0,0,0,1,38.18c.12-.08,0,.08,0,0v0a.17.17,0,0,1-.11.09l0-.13.08,0a.12.12,0,0,0-.14-.1c0-.17,0-.11,0-.11l.07-.11H1a.17.17,0,0,1,0-.17s.07-.11.14,0-.09-.07,0-.08L1,37.63c-.1,0,0-.11,0-.11s0,0,.07-.07-.06-.06,0-.09,0-.08,0-.08-.07.06-.12,0,0-.06,0-.14l0,.06A.31.31,0,0,0,1,37l.07.1L1,36.93l.1-.06L1,36.78c.05-.1.07.08.07.08s-.05-.1.06-.2l.06.05,0-.11s0,0,0,0-.07-.18-.21-.19v.06c0-.09-.1-.15,0-.2s.08,0,.08,0-.1-.05-.08-.14a.07.07,0,0,1-.07,0s-.09.13,0,.11v0l.06.06c0,.07-.06,0-.06,0s.1,0,.08.14h0l.09.16c-.09,0,0,.12,0,.17s0-.18-.06-.26l-.12-.07,0,.19-.06.09h0c0,.07.09.06,0,.11l0,0c0,.06,0,0,0,0A.12.12,0,0,0,.73,37l0,.16c.12,0,.12.24.24.12l0,.15c-.06,0-.13-.11-.23-.08l0-.11c-.14,0,.06.23-.1.29s0,0-.06.15H.72a.14.14,0,0,1-.1.07l0,.06,0,0c-.07,0-.05.06-.05.06A.38.38,0,0,1,.56,38l0,0,0,0v0L.69,38c-.06.13,0,.24-.15.34l-.08,0s0,.12,0,.12l.06,0-.07,0,0,0,.08.16a.78.78,0,0,0,0-.09s.13.09.08.13-.11.08-.12-.05c-.13.08.08.05,0,.14l-.05.06-.06-.09v.05c0-.05,0-.21-.07-.31l0,.19c0,.26-.06.56.07.78h0l0,.05c-.06,0-.08.13-.13.2l0,0s.15,0,.12.09,0-.05-.08,0l0,0-.08.1v-.05l-.09,0V40s-.06,0-.09,0,.14.18.17.29H.24c0,.09.14.19.15.29a.28.28,0,0,0,0-.08,3,3,0,0,1-.18.79l.12.08-.08.07a2,2,0,0,0,0,.78l-.11.09c0,.18.12.23.14.41,0,0-.13-.06-.14,0l.07.07,0,0s0,.09,0,.18a.83.83,0,0,0,.08.32c.11.27,0,.12,0,.12s0-.05,0-.05,0,.1-.07.13a.28.28,0,0,0,.06.18,0,0,0,0,1,0-.07c0,.09,0,.25,0,.25A4.57,4.57,0,0,0,.16,44.9h0c.07.08,0,.07,0,.07v0a.34.34,0,0,0,.1.22c0,.09,0,.2,0,.12s-.26.12-.26.12l.31,0s0,.07,0,.07l-.09.1c-.06,0-.05,0-.05,0a.11.11,0,0,1-.16,0l.09,0,0,.08,0-.07c0,.07.12.09.07.18l.11.09a.63.63,0,0,1,0,.12L.22,46a.14.14,0,0,1,0,.13l-.06-.07,0,.08s.09,0,.11,0a.38.38,0,0,1,.18.26c-.08.08-.07-.08-.16,0s.24.19.24.29.05.11.06.24-.05.1-.1.12L.37,47a.08.08,0,0,1,0,.08s0,.15,0,.15l.11.07a.78.78,0,0,1,.07.23c0,.11.08.08.08.08s0,.12,0,.12-.07-.09-.05-.14-.22-.22-.2-.36c-.17,0,0,.09,0,.16h0v0s-.06-.13-.14-.13.17,0,.1.16-.06.14-.07.18.19,0,.18.17l-.09,0c0,.14.13,0,.15.18,0,0,.09,0,.09,0a.11.11,0,0,1,0,.12s0,0,0,0,0-.12,0-.19l-.1,0a.17.17,0,0,1,.1-.09h0c.14,0,0,.09,0,.09l.11,0c.1,0,.1.11.1.11,0,.15,0,.22-.11.23l0-.09c0,.05,0,.12,0,.12v.08h0a0,0,0,0,0,0,0l0,.18h0l.07-.08a.64.64,0,0,1-.11.17c-.09,0,0-.11,0-.11s0,.06-.08.17,0-.12-.11-.13.07.1.05.19-.06-.09-.06-.09l-.08.08c0-.15-.12,0-.12,0s0-.05,0,0l.11-.11,0,.16s-.11-.07-.15,0l.05.08s0,0,0,0,.17.09.17.09.05.14,0,.16a1.69,1.69,0,0,0,.22.36l-.14.06c0-.08-.12-.07-.17-.06s.11.08.13,0,.08,0,0,.14a.31.31,0,0,0-.13,0s.12,0,.11.12h0c0,.05,0,.1,0,.1s.08.17,0,.18c.06.13.06,0,.06,0l.06.21,0-.09-.09,0c0,.17.2.07.16.25l-.13,0s0,.14.07.06v.15l.13.12a.3.3,0,0,1-.07.2c.09.17,0,.35.11.53h0c0,.14.1-.09.12.06-.11,0-.05.11-.09.16s.12.3.09.48H1a.37.37,0,0,0,0,.2v.12c0,.2.09.35.15.54l-.07,0c0,.1,0,.26,0,.26,0,.18.15.11.09.28l0,0a.5.5,0,0,0,0,.21c.09.15.23.16.23.35s-.05-.1-.16-.08.07,0,.05.11H1.23s.17.13.17.13V54c.1,0,.05.18.05.18l.13,0c0,.13.14.14.14.14.05.2-.06,0-.14.06l-.15,0c0,.11.11.17.15.25h0c0,.12.19.22.17.34V55s0,.09.09.1-.06.1-.06.1.11.24.26.27c0,0-.09,0-.12,0s0-.12-.06-.15l0,.13s.18.18.28.19,0,.11-.12.11c.11.19.2-.15.26.07s-.12-.07-.1.08l0,0c-.15.15.16,0,.18.15s-.09-.06-.14,0,.22.11.22.23h0a.74.74,0,0,1,0,.2v.06c0,.13.06,0,0,.15l.07,0c0-.06,0-.18,0-.23s.1-.13.2-.13H2.55a1.35,1.35,0,0,0,.06-.66l-.13-.36c-.13,0,0,0-.09-.14,0,.06.09,0,.1-.07l-.08-.07s.09-.21,0-.25,0,0,0,0,0,0,0,0l.05,0a1.71,1.71,0,0,1,0-.31c-.12,0-.07-.11-.07-.11l0-.16-.1,0c-.1,0,0-.1,0-.1l-.08,0s0-.23.05-.3c-.36-.52-.07-.9-.25-1.48l-.11,0s0-.09,0-.14,0,0,0,0l.05.08h0a.26.26,0,0,1,0,.09s-.13,0-.11-.11l0,0c0-.06-.05-.05-.05-.05s0-.1,0-.11v-.17a.13.13,0,0,1,0-.19c.09,0,.05.08.05.08l.13,0H1.89v-.09h0s0,0,0,0h0l0-.05.08-.07c0-.21-.14-.24-.07-.43,0,0-.13,0-.13-.09l.07,0-.05-.07c.1-.11,0-.18,0-.32h0s-.09-.09-.08-.16H1.8c0-.09-.16,0-.13-.15s-.1.08-.16.1.06-.15,0-.11,0-.07,0-.07l0-.06c0-.07.09,0,.09,0s0-.11,0-.18l0,0v-.1a.51.51,0,0,1-.07-.23l.11,0c0-.06,0,0,0,0s0-.13,0-.19ZM1,39H1Zm-.08.8c0-.1,0-.07,0-.07s0,.14,0,.23l0,0L.87,40S.94,39.71.89,39.75ZM.56,37.9h0Zm0,.48,0,0Zm-.2,1,0,.11Zm0,6.08-.09,0,0,.09h0ZM1,48.23l-.08,0H.83l0,.05C1,48.29,1,48.34,1,48.23Z"/><path class="cls-4" d="M.35,47.34v0Z"/><path class="cls-4" d="M.83,48.29a.09.09,0,0,0,0-.06Z"/><path class="cls-4" d="M1.17,36.38v0l0,0c0-.1-.08-.11-.08-.11a.64.64,0,0,0,0,.21Z"/><path class="cls-4" d="M.74,36.38l-.07,0,0,0Z"/><path class="cls-4" d="M.42,37.47l0-.09Z"/><path class="cls-4" d="M1.13,37.15l0-.06v.12C1.08,37.15,1.13,37.2,1.13,37.15Z"/><path class="cls-4" d="M.38,37.71s0,.09,0,.11Z"/><path class="cls-4" d="M1.12,37.72c.08,0,0-.07,0-.07Z"/><path class="cls-4" d="M.56,38.22a.13.13,0,0,1,0-.1l0,.05,0-.14c0,.06-.08.13-.15.12S.5,38.26.56,38.22Z"/><path class="cls-4" d="M1.12,37.86a.14.14,0,0,1,.08-.07.09.09,0,0,0-.1,0l-.05,0C1,37.85,1.13,37.78,1.12,37.86Z"/><path class="cls-4" d="M.39,38.46l0,0-.09-.2A.33.33,0,0,0,.39,38.46Z"/><path class="cls-4" d="M1,38.07l.09,0c0-.07,0,0,0,0V38S1,38,1,38.07Z"/><polygon class="cls-4" points="1.05 38.3 1.08 38.39 1.18 38.33 1.05 38.3"/><polygon class="cls-4" points="0.98 38.4 0.96 38.4 1.09 38.54 0.98 38.4"/><path class="cls-4" d="M.3,39.88l0,0Z"/><path class="cls-4" d="M1,39.63a.8.8,0,0,0,.05.2C1.05,39.77,1.08,39.62,1,39.63Z"/><path class="cls-4" d="M1.07,39.86v0Z"/><path class="cls-4" d="M1.19,42v0Z"/><path class="cls-4" d="M1.17,42a.28.28,0,0,0,0-.11.2.2,0,0,0,0,.1S1.22,42,1.17,42Z"/><path class="cls-4" d="M1.14,42.45l0-.05S1.12,42.47,1.14,42.45Z"/><path class="cls-4" d="M.12,45.84s0,.08.06.06S.14,45.88.12,45.84Z"/><polygon class="cls-4" points="0.2 45.97 0.17 45.98 0.13 46.01 0.2 45.97"/><path class="cls-4" d="M.14,46.3l0,0Z"/><path class="cls-4" d="M.1,46.28h0Z"/><polygon class="cls-4" points="0.12 46.26 0.09 46.26 0.1 46.28 0.12 46.26"/><polygon class="cls-4" points="0.13 46.41 0.21 46.34 0.08 46.35 0.13 46.41"/><path class="cls-4" d="M.17,46.63c0,.06.12.13,0,.17.07.17.17,0,.23.14,0-.18-.2-.07-.17-.24C.2,46.79.2,46.65.17,46.63Z"/><path class="cls-4" d="M.35,46.58c-.06,0-.06.07-.06.07Z"/><polygon class="cls-4" points="0.25 46.95 0.21 47.01 0.25 47.02 0.25 46.95"/><path class="cls-4" d="M.25,47.16l-.07,0S.21,47.21.25,47.16Z"/><path class="cls-4" d="M.2,47.44c0,.05.12.08.12.08l0-.07S.22,47.5.2,47.44Z"/><polygon class="cls-4" points="0.47 48.06 0.42 48 0.47 48.09 0.47 48.06"/><path class="cls-4" d="M.8,48a.59.59,0,0,1,0-.14A.33.33,0,0,0,.8,48Z"/><path class="cls-4" d="M.38,48.18l0-.09S.33,48.17.38,48.18Z"/><path class="cls-4" d="M.41,48.32s0,0-.06,0a.17.17,0,0,0,0,.12H.55c0-.1-.2-.13-.08-.19l-.16-.07C.29,48.29.42,48.26.41,48.32Z"/><path class="cls-4" d="M.66,48.08l0,.06.08,0C.81,48.17.67,48.12.66,48.08Z"/><polygon class="cls-4" points="0.54 48.87 0.58 48.98 0.58 48.95 0.54 48.87"/><polygon class="cls-4" points="0.52 48.95 0.49 48.96 0.56 49.04 0.52 48.95"/><polygon class="cls-4" points="0.5 49.08 0.5 49.06 0.46 49 0.5 49.08"/><path class="cls-4" d="M.51,49.32l0,0s0-.09,0-.08S.55,49.3.51,49.32Z"/><path class="cls-4" d="M1.73,50s-.06,0-.08,0l.08,0Z"/><path class="cls-4" d="M1.63,50.09l.1.08c0-.1-.07-.1-.1-.18a.22.22,0,0,1,0,.12Z"/><path class="cls-4" d="M1.85,51.77c-.05,0,0,0,0,0a.79.79,0,0,0,0,.2h.09l-.06-.11h0C1.93,51.81,1.84,51.86,1.85,51.77Z"/><path class="cls-4" d="M2.31,56.23a.17.17,0,0,0-.07,0Z"/></g><g class="cls-7"><path class="cls-4" d="M43.31,88h0l.06,0h.15l.07,0h0l0,0h0l.08,0h0l0,0h.09v0h.07l0,0h0s0,0,0,0H44v0h0s0,0,0,.06,0-.06,0-.06l0,0a.05.05,0,0,0,.08,0l-.05-.06.09.1.09,0v0l.13,0,0,0h.12l0,0s.1,0,.06,0h.1l0,0h.13l.11-.07s.05.1.05.1,0,0,0,0l.07,0,.06,0h.09s0,.14,0,.08v0s.05,0,.05,0l-.06-.09.11-.06h0v0l.07-.09s.06,0,.06,0l-.08.15s-.06,0-.06,0,0,.09,0,.09l0,0,0,0v-.07l.16,0v-.1l-.06.05,0,0h0s0,0,0,0,0,0,.07-.09c0,.11.07.07.07.07l0,0s.09.14.07,0,.09,0,.12,0l-.06.06c0,.08.17-.11.17-.11s.08-.08.08-.08.08.06.13,0,0,.14,0,.09l0,0a.08.08,0,0,1,.1,0l0,.1.08-.11s.17,0,.17,0l.24,0,.45,0s.36,0,.36.08a1.29,1.29,0,0,1,.44,0s.35.12.36.05c0,.09.06,0,.06,0l.08,0,.08-.06s.1,0,.14,0v0c0-.08.1,0,.1,0h.08l0,.08,0-.06v.09s.09,0,.09,0l0,0s.07,0,.09,0,0,.14,0,.07.06-.07.08,0a.42.42,0,0,1,0-.12l.06-.08v0a.18.18,0,0,0,.08,0s.14.09.14.09.11,0,.11,0,.21-.08.19,0l0,0s0,0,0,0l0,0v0c.08.05,0,.05,0,.05s.06,0,.06,0l.1,0h.09l0,0,0,0h0l0,0,.05-.06a.06.06,0,0,1,0,0l.31,0H51l.11,0h.05l0,0v0l0,0h0l0,0h.17l0,0h.06l.06,0,0,0v0h0l0,0h.12l.07,0h.3l.08,0-.07,0h0l-.12,0h0c-.05,0-.06,0-.06,0h0s-.1.07-.07,0a0,0,0,0,0-.06,0s.06,0,0,0l0,0a.65.65,0,0,0-.1.09h-.05s.12,0,.12,0l-.21.09,0,0,0,0h0l-.16.06-.11.06v-.06s0,0,0,0l-.11.06a0,0,0,0,0,0,0l-.09,0,0,.09v0l0,0s0,0,0-.07-.13.15-.13.15l-.11,0-.24,0v0a1,1,0,0,1-.41.08,0,0,0,0,0,0,0s-.29.1-.29,0a.13.13,0,0,1,0,.08l-.13,0-.12,0-.07-.06-.05,0h-.09s0,0,0,0a.07.07,0,0,0,0,0c0-.06-.09.17-.1,0h0c-.11-.1-.06.06-.06.06s-.08,0-.1-.06l0,.06h0l-.06,0v-.1h0l0,.11,0-.13s0-.07,0-.11a.36.36,0,0,1-.14.1l0,0,0,0a1,1,0,0,0-.06.2l0,0v-.13s0,0,0,0v.13s0,.05-.07,0l.05-.12c-.06,0,0-.06,0-.06s-.05,0-.05,0,0,0,0-.08-.09,0-.1-.06.1,0,.06-.09-.09,0,0,0v0s-.15.06-.18,0l0,0c0-.11-.15-.16-.14,0h0l0,.06v.12l0-.07c0,.06.06,0,.08,0l-.1.06,0,.08-.1.1,0-.05s-.05.06-.05.06l-.12,0-.07.09a.15.15,0,0,1,0-.09h0l.09-.1s.11-.15.15-.06a.48.48,0,0,0,0-.16s0,.09-.08.12l-.1,0,0,.06s-.09,0-.09.07a.12.12,0,0,0,0,0c0-.08-.07-.07-.07-.07H47.8s-.09.19-.11.1.09-.2,0-.09-.07.13-.08.2l0,0s0,0,0,0l-.05,0v0s0,0,0,0-.07.07-.07.07l0,.08,0,0s0,.07,0,.07-.08-.08-.07-.14,0-.17,0-.11v.21s0-.19,0-.19V89l-.16.11V89.1s-.08,0-.06,0v0l-.43-.06h-.08v0a.06.06,0,0,1,0,0l0,0c-.08.06-.08-.06-.08-.06l0-.09s-.24.21-.28.06v0a.14.14,0,0,0,0,0s0-.08,0-.1-.14.09-.19.06l-.06-.09s-.3,0-.34-.11c0,.09-.07,0-.07,0a3.21,3.21,0,0,0-.3-.16h0s-.17.11-.12,0l-.14.05s0-.05,0-.05l-.06,0a0,0,0,0,0,0,0c0-.05-.07-.07-.07-.07h0s-.06.06,0,.09a.31.31,0,0,0-.06-.06l0,0v0a1.66,1.66,0,0,1-.42-.09.58.58,0,0,0,.15,0h0s.07,0,0,0,0,0-.06,0,0,0,0,0h0l0,0-.08,0,0,0h-.08l0,0,0,0-.1,0,0,0h0l-.05,0-.07,0v0l-.09-.06-.09,0,0,0s.06,0,0-.05h-.06s-.06,0-.06,0h-.21l0,0h0l.06,0,0,0h-.09s0,0,0,0l0,0h0l0,0Z"/><path class="cls-4" d="M44.92,88.26l-.1,0,.06,0,0,0a.05.05,0,0,0,0-.05l0,0Z"/><path class="cls-4" d="M44.51,88.19h0S44.49,88.2,44.51,88.19Z"/></g><g class="cls-7"><path class="cls-4" d="M40,88.53h0s0,0,0,0v0h0v0h0v0h0v0h0v0s0,0,0,0v0h0l0,0v0h0s0,0,0,0l0-.07v0s0,0,0-.05v0l0,0v0l0,0,0,0,0,0v0h0l0,0s0-.06,0,0h0v0l0,0v-.1a.17.17,0,0,0,0,.08l0,0v-.12s0,.14,0,.07v0l0-.06v-.1l0,0s0-.09,0-.09l0,0v.15h0c0,.06,0,0,0,0s0,0,0,0v0a.42.42,0,0,0,0-.06s0,0,0,0V88.1a0,0,0,0,0,0,0v0s0,0,0,0a.19.19,0,0,1,0-.1c0,.11,0,0,0,.05v0s.05.11,0,0h0v.07c0,.07,0-.14,0-.19v0l0,0,0,.07v0l0,0,0,.1v-.11s0,0,0,0h.06l.12,0,.1,0h.12s.08.11.09,0c0,.1,0,0,0,0v0l0,0s0,0,0,0v.05c0-.08,0,0,0,0h0V88s0,0,0,0V88s0,0,0,0,0,.14,0,.07,0-.06,0,0a.66.66,0,0,1,0-.14s0-.1,0-.1V88l0,0s0,.11,0,.08,0,0,0,0,.06,0,0,.1v0s0,0,0,0v0l0,0c0,.06,0,0,0,0s0,.07,0,.07v.06h0l0,0h0s0,0,0,0h0l0,0h0l0,.1,0,.05s0,0,0,0v0h0v0l0,0h0v0l0,0,0,0v0h0v0h0v0h0l0,0h0v0l0,0h0s0,0,0,0h-.07v0l0,0v0l0,0v0l0,0-.06,0v0l0,0h0l0,0,0-.08,0,0s0,0,0,0l0,0,0,0,0,.08,0,0v0l0-.07s-.08.11-.08.11v0h-.05l0,0s-.07.06-.08,0v0s-.08.08,0-.07l0,.08h0s0,0,0,0l0,0h0s0,0,0,0a.41.41,0,0,0,0-.08s-.06.19,0,0v0c0-.09,0,.07,0,.08s0,0,0,0h0v0l0,.08c0-.06,0-.07,0-.07s0,0,0,0l0,.09a.42.42,0,0,1,0-.11s0-.09,0-.13a.45.45,0,0,1,0,.08c0,.05,0,.06,0,0v0a.85.85,0,0,0,0,.15.6.6,0,0,0,0,.08s0-.09,0-.13h0a.45.45,0,0,0,0,.11s0,0,0,0v-.16l0-.11s0,0,0,0l0-.08s0,0,0-.06,0,0,0-.08,0,0,0,0l0,0v0s0,.06,0,0v0c0-.11,0-.16,0,0h0l0,.06a.48.48,0,0,0,0,.12v0s0,0,0,0,0,0,0,0v.1l0,.14v-.1l0,.1v-.08h0a.41.41,0,0,1,0-.1s0-.17,0-.08a1.05,1.05,0,0,1,0-.12l0,.09s0,0,0,0a.23.23,0,0,1,0,.07v0c0-.09,0-.09,0-.15l0,.08s0,.2,0,.12,0-.21,0-.09a1.09,1.09,0,0,0,0,.2v-.15s0,0,0,0v.23a1.38,1.38,0,0,1,0-.14l0-.11v0a.24.24,0,0,1,0-.07.75.75,0,0,0,0,.12v0h0s-.07,0-.07,0h0v0c0,.09,0,0,0,0s0-.11,0-.07,0,.23,0,.11v0l0-.09s0,.11,0,.09a.36.36,0,0,0,0-.07s0,.12-.07,0c0,.1,0,.05,0,0l-.07,0v0s0,.14,0,0v0l0,0h0s0,0,0,0a.08.08,0,0,1,0,0l0,.06,0-.06v0c0,.07,0,.06,0,.06l0-.06h0a.06.06,0,0,0,0,0h0a0,0,0,0,0,0,0h0v0s0,0,0,0l0,0v0h0l0,0v0h0s0,0,0,0,0,0,0,0,0,0,0,0l0,0h0l0-.05v.06H40Z"/><polygon class="cls-4" points="40.31 88.3 40.29 88.3 40.31 88.31 40.32 88.31 40.31 88.26 40.31 88.3 40.31 88.3"/><path class="cls-4" d="M40.2,88.53s0,0,0,0Z"/></g><g class="cls-7"><path class="cls-4" d="M31.88,9.33H32s0,0,.11,0l.08,0h0l.1,0,.11-.06s-.11.07-.05,0l.09-.05,0,0,.08-.08,0,0L32.6,9l0,0c.08-.06.11-.12,0-.05L32.65,9l0-.06h0l.07-.1s0,.05,0,0l0-.05c0,.06.07-.05.07-.05a.13.13,0,0,0,.06-.06h0l0-.06H33c0-.05,0-.06,0-.14v0s.07-.13,0-.05l0,0,.19-.1.07-.13h0a.23.23,0,0,0,.11-.11C33.47,8,33.5,8,33.5,8l.16-.12.06,0s.12,0,.09,0,.14-.11.12,0h0l.12-.06h0l.24-.09a.11.11,0,0,0,.07-.08.85.85,0,0,0,.22,0l.15,0,.08-.07.15-.06.12,0s0,.13.12.06h0l.09,0-.17,0a.21.21,0,0,0,.1-.09l0,0,.07,0,.09-.11c.07,0,.11,0,.21,0a1,1,0,0,1-.19.15.66.66,0,0,0-.17,0c-.08.08.09.06.09.06l.07,0,.05,0,0,0,.27-.09c-.09,0,0-.07,0-.09s0,0,0,0l0,0-.08,0s.09-.05,0-.07l.17-.08c0,.11.16,0,.16,0l0,0s.2.11.12,0a.34.34,0,0,0,.15,0v.09c.11.08.27-.14.35-.19s0,0,.13,0a.16.16,0,0,0,.16,0s0,.14.11.09l-.06-.06a.23.23,0,0,1,.19,0l.09.11.12-.12a.84.84,0,0,1,.32,0l.48,0s.58,0,.87.09c0,0,.69.13.66.19s.57.09.83.17l.6.25c.12.06.15-.06.24-.06l0,.06.15,0a.44.44,0,0,0,.26,0v0c.07-.06.18,0,.25.08H42l0,.05.1,0,0,.08a.6.6,0,0,1,.25,0l0,0s.11.07.16,0,0,.14.05.07.1-.06.14,0c0,0-.06-.09-.06-.14s.07-.1.13-.06v0l.13,0s.24.11.29.07.16,0,.1,0,.43,0,.38.05l0,0s0,0,0,0h.06v0l-.05.08c0,.09.12,0,.12,0l.18,0,.12,0c-.06,0,0,0,0,0l.07-.07-.08,0h-.1l.09-.07.16,0a1.72,1.72,0,0,1,.3,0L45.19,8c.1,0,.1,0,.1,0h.36l.06,0,0,0h.14L46,7.81l.19,0,.12,0,0,0,.1,0h.11l.07,0,0,0,.09,0h0a.45.45,0,0,1,.12-.05.6.6,0,0,0,.16,0l.15,0,.35-.09h.06l.15-.06-.06,0h0l-.21.09h0l-.17.08h0S47,7.7,47,7.65s0,0-.1,0,.1,0,.1,0l-.19,0a1.72,1.72,0,0,1-.18.13h-.08l.11-.07s-.22.11-.25.16l0,0L46.31,8h0l-.27.13a.49.49,0,0,0-.11.08s-.11,0-.11,0l0-.07c0-.05-.11.09-.11.09v0l-.21.09-.07.1v0l-.09,0s.09-.05.08-.09c-.19,0-.24.2-.45.21l0,0-.44.12,0,0-.46.17L44,8.7s-.55.15-.52,0a.08.08,0,0,1,0,.08l-.25,0-.22,0-.11-.06-.11.05c-.09,0-.08,0-.08,0s-.13,0-.13,0,0,0,0,0-.18.15-.18,0h.08c-.18-.12-.11.05-.17.06s-.1,0-.12-.09-.07.06-.07.06l0,0c-.08,0-.05.07-.12.06s.06-.06,0-.11-.06,0-.06,0l-.1.07.08-.13s-.09-.08,0-.11l-.19.06c-.11,0-.14,0-.16,0l-.06,0s-.13.14-.13.18h-.08l0-.11s-.06,0-.07,0a.38.38,0,0,0,0,.11c-.05-.06-.09,0-.13,0s0-.12.1-.1c-.1-.06,0-.06.06-.11a.34.34,0,0,1-.17,0c0-.06.09,0,.09,0S41,8.48,41,8.48s.16,0,.1-.13-.15,0,0,0v0c-.08-.06-.29,0-.29,0l0-.07c0-.11-.25-.21-.25-.1h0l-.06,0v.13l.06-.07.15.07c0,.05-.15,0-.19,0s0,.06,0,.08-.09.08-.19.07l.06-.06c-.08,0-.12.06-.17.09s-.06-.11-.14-.12L40,8.55a.13.13,0,0,1,.09-.07l-.09,0,.18-.06s.21-.11.27,0a.37.37,0,0,0,0-.17.23.23,0,0,0-.09.08h-.27l0,.06-.17,0,0-.05c.12-.06-.08-.09,0-.15l-.28,0s-.17.17-.19.08.17-.18-.06-.11c0,0-.12.11-.13.19l0,0s0,0,.06,0l-.08-.05,0,0-.07-.05-.24.09,0,0-.06,0,0,.07c.06-.06,0-.08,0-.15l-.06-.12v.22l-.08-.19c.06,0,0,0,0,0l-.26,0,0,0h-.13l0,0L37.49,8h-.12V8l-.08,0,0,0c-.13.09-.15,0-.15,0s.1-.1-.07-.07c0,0-.35.22-.46.09l0,0-.06,0V7.85l-.28.1-.15-.07c-.17,0-.5.13-.63,0,0,.1-.11.06-.21,0a2,2,0,0,0-.32,0l-.1,0s-.22.18-.21,0a.17.17,0,0,0-.12.09h-.14l0,0h0s-.16,0-.16,0,0,0,0,0-.05.08,0,.1a.38.38,0,0,0-.14,0H34V8l-.29.17-.31.19c0-.05.13-.12.15-.16h0s.08-.07,0,0l-.07.07c.07-.06,0,0,0,0a0,0,0,0,0,0,0s0,.05,0,0-.07.06-.06.09l-.07,0-.06.1V8.43l-.07.05a1.74,1.74,0,0,0-.15.13l.08,0a.08.08,0,0,0,0,0h0s-.07.13-.07.07c-.09.09,0,0-.12.08h0l-.14.12L32.68,9a.12.12,0,0,1,0,0l0-.09L32.65,9l0,.09s-.06,0-.06,0l-.06,0,0,0h0l-.08.05,0,0-.07,0-.08,0,.06,0,.1,0c.14-.1-.05,0-.05,0l-.17.05h-.24Z"/><path class="cls-4" d="M34.28,7.69l-.2,0h.11a.27.27,0,0,0,.12,0l-.06,0,0,0Z"/><path class="cls-4" d="M33.53,8h0Z"/><path class="cls-4" d="M33.05,8.66s0,0,0,0Z"/></g><g class="cls-7"><path class="cls-4" d="M86,55.12h0v.1c0-.1,0,0,0,.08,0-.1,0,.06,0,.07v0c0-.09,0,.09,0,.09s0-.09,0,0v.09s0,.05,0,.05a.35.35,0,0,0,0,.06v.06c0,.09,0,.13,0,0v.15A.09.09,0,0,1,86,56c0,.06,0,0,0,0V56l0,0a.51.51,0,0,0,0,.1h0v.06s0,0-.06,0a.17.17,0,0,1,.08.11h0c0,.07,0,.1,0,0s0,0,0,0l-.08.16a.18.18,0,0,0,0,.12l0,0c0,.07,0,.12,0,.2l0,.06S86,57,86,57v0s0,.08,0,.05,0,.14,0,.1v0h0a.41.41,0,0,1,0,.1l0,0v.19l.08.14s-.1.09-.11.14l0,0,0,.09L86,58v.1s-.14,0-.08.07h0v.08l.08-.13.06.15h0l-.05,0a.75.75,0,0,1,.09.09.3.3,0,0,1,0,.16c0-.13-.09-.1-.09-.1a.2.2,0,0,1,0-.17c-.09-.11-.09,0-.09,0s0,.09,0,.06,0-.08,0,0,.07,0,.06,0a1.7,1.7,0,0,1,0,.22c0-.07.07,0,.09,0l0-.06a0,0,0,0,0,0,0v-.05s0,.06.08,0,0,.09,0,.14-.06.12-.06.12l0,0v.1c0,.06,0,.12,0,.18S86,59,86,58.94s.11.23.16.29,0,0,0,.11,0,.06,0,.06-.09.07,0,.14l0,0c0,.08,0,.15,0,.22H86c0,.07.08,0,.08,0s0,.3,0,.36l0,.3c0,.23,0,.46-.08.68l-.08.53c-.05.21-.11.43-.16.65s-.2.48-.14.52c-.11.06,0,.09,0,.15s-.06,0-.06.06a.5.5,0,0,1,0,.12c0,.07-.06.13,0,.22h0c.06.06,0,.15-.08.2a.11.11,0,0,0,0,.06l-.08,0c0,.05,0,0,0,0h0a.43.43,0,0,1,0,.22l0,0,0,.13s-.14-.06-.08,0l-.07.11.14,0,0,.12,0,0v.12s-.15.18-.12.23-.07.11-.07.11,0,.33-.08.26V65l0,0h0c-.08.08,0,0,0,0l-.09.09-.07.1,0,.09s0,0,0,0l0,.08v-.07s0,0,0-.06h0c0,.1,0,.06,0,.06a.29.29,0,0,1,0,.16,3.47,3.47,0,0,1-.18.33,1.09,1.09,0,0,0-.13.34c0,.08,0,.08,0,.08s-.11.14-.11.2h0l0,.07s0,0,0,.06v0l0,0,0,.06v.07a.86.86,0,0,1-.07.14l0,.1v0l0,.08,0,.08v0l0,0a.41.41,0,0,1,0,.07v0c0,.06,0,.09-.06.15l0,.11a.6.6,0,0,1-.06.11s0,.14-.09.23h0l0,0s0,.16,0,.12a.93.93,0,0,0,0-.1h0a1,1,0,0,1,0-.17h0c0-.07,0-.09,0-.09s0-.07,0-.07,0-.16,0-.11,0,0,0-.07-.05.06,0,0l0,0a.66.66,0,0,0,0-.17.11.11,0,0,0,0-.06.8.8,0,0,1,0,.18L84,67V67a.07.07,0,0,1,0,0h0a.68.68,0,0,0,0-.24.71.71,0,0,1,0-.17s.06,0,.06,0l0,.08a.57.57,0,0,1,0-.19l0,0s0-.15,0-.19-.08-.06-.08-.06h0v-.08l0,.1c0-.14-.08-.25,0-.39v0c.08-.1,0-.22.06-.34l0,0a1.3,1.3,0,0,1,.1-.56l0,0s0-.43.15-.37,0,0-.06,0,0-.13,0-.19l0-.16a.18.18,0,0,0,.08-.08.22.22,0,0,1,0-.09c0-.07,0,0,0,0v-.13a.11.11,0,0,1,.08.06s-.16-.21-.16-.21c.16.05.16.07.16.07s0-.07,0-.07l.09-.12,0-.07,0,0c0-.05-.07,0-.07,0s.07,0,.12,0a.08.08,0,0,1,0-.07s-.1,0-.1-.06.12,0,.12.08.09-.06.12,0a.81.81,0,0,1,0-.14l0-.12.06-.06a.35.35,0,0,0-.14-.11l-.06-.06.12,0s0,0,0,0l-.12,0c.05,0,0-.07,0-.07s.16,0,.15.05.06,0,.06,0l0-.11a.12.12,0,0,0,.05.11s0-.12,0-.12,0,.13,0,.13c.25-.07.14-.16.11-.08l0,0h0c0-.06,0-.23,0-.23l.07,0,.08-.2v0s-.06-.15,0-.05H85l0,0,0,.13,0-.15s-.06,0-.07,0-.1-.07-.08-.14l.07.05c0-.08-.08-.09-.08-.09s.07-.1.07-.1-.07-.12-.07-.16.07.06.09.11,0-.07,0-.11l.08.14s.13.17,0,.21l.17,0c0-.06-.08-.07-.1-.14a.43.43,0,0,0,0-.15L85,62l0-.14,0,0c.07.1.09-.06.15,0a.41.41,0,0,0,0-.21s-.18-.13-.09-.16.19.15.11,0a.25.25,0,0,0-.2-.1l0,0s0,0,0,0l0,0H85l0-.07C85,61.15,85,61.11,85,61l0,0L85,61s-.07,0-.08,0,.08,0,.08,0c0,.16.24,0,.19,0h-.22l.19-.06h.07c0-.06-.1-.14-.07-.21l0,0v-.1l0,0,.09-.62v-.1h0l0-.06c0-.08,0,0,0,0s.07-.1,0-.19.15.18.13,0-.19-.3,0-.37h0s0,0,0,0,.06,0,.06,0-.08-.16,0-.22.06,0,.08-.11-.06-.42.11-.5c-.09,0,0-.09,0-.17a2.54,2.54,0,0,0,.1-.37l0,.05c0-.07-.12-.21-.12-.21s.06-.08.06-.15.05,0,0,0,0,0,0,0v0s.05-.13,0-.09,0,0,0,0,0-.05,0-.05l0-.1v0h0a1.44,1.44,0,0,1,0-.61.36.36,0,0,1,0,.16h0s0,.09,0,0a0,0,0,0,1,0-.08c0,.08,0,0,0,0h0s0,0,0,0l0-.1,0,0a.08.08,0,0,1,0-.09l0,0,0,0a.74.74,0,0,0,0-.18.14.14,0,0,1,0,0s0,0,0,0h0l0-.07c0-.11,0,0,0-.11h0l0-.14v-.08l.05,0,0-.09c0,.07,0-.08,0-.08v-.1a.07.07,0,0,1,0-.05h0a.35.35,0,0,1,0-.07s0,0,0,0,0-.14,0-.06v.08c0,.13,0,0,0-.07v-.31Zm0,2.35a.16.16,0,0,0,0-.09s0,0,0,0v.09l0,0h0S86,57.46,86,57.47Zm0-.61Zm-.13-.65s0,0,0,0Z"/></g><g class="cls-7"><path class="cls-4" d="M82.81,71h0v0h0s0,0,0,0h0l0,0v0h0v0h0v0l0,0s.06,0,.06,0v0l0,0,0,0-.07,0,0,0,0,0v0h0v0h0v0h0v0l.07,0-.1,0h0l0,0,0,0h0s-.11-.06-.06,0h0l.07,0,.06,0h0l.08.06h0l-.11-.08v0l0,0h0s0,0,0,0l.06,0,0,.06.06,0,0,0h0s0,0,0,0l.08,0h-.05l0,0h0s0,0,0,0l-.06,0,.15.11,0,0v0s-.13-.06-.08,0l0,0v0l-.09,0,.1.07s0,0,0,0v.11l-.09.06,0,.08-.06,0a.07.07,0,0,1,0,0l0,0,0,0,0,0,0,0c.06,0,0,0,0,0h0l-.07,0,0,0s-.06,0-.06,0l0,0v0l-.06,0h0l.12,0s.09.06.09.06l-.09,0,0,0h-.08l0,0s0,0-.09,0l0,0h0l0,0c-.05,0,0,0,0,0h-.12l0,0v0h0l0,0h-.09l0,0v0h0s0,0,0,0v0h0v0h-.14v0H82v0h0v0h0v0h0l0,0h0l0,0h0l0,0s0,0,0,0v0h0v0l0,0,.06,0,0,0s0,0,0,0h0s0,0,0,0l-.07,0h0l.06,0,0-.09h0v0l0,0V72l0,0s0-.08.07,0l-.06,0v-.06l.06,0,0,0h0l0,0a.17.17,0,0,0,.06,0s-.15-.1,0,0v0l-.06,0c.06,0,0,0,0,0h0l-.07,0,.1,0h0L82,71.74l.11.05.11.06-.07,0,0,0h0l-.17-.1,0,0,.08,0h0l-.1,0-.05,0,.15.07.09.06v0s0,0,.06,0,0,0,.06,0,0,0,.07,0l0,0,0,0,0,0v0l0,0c.1,0,.15,0,0,0h0l0,0-.12-.06a.19.19,0,0,0,.08,0c-.06,0,0,0,0,0s-.07,0-.11-.08l-.06,0L82,71.6l.07,0L82,71.57l.09,0-.07,0,.07,0h0l.08,0,.13.1.06,0-.1-.07,0,0-.06,0-.06,0h0a.57.57,0,0,0,.13.07s0,0,0,0l-.2-.13s.25.15.16.08a.7.7,0,0,0-.18-.11h0l0,0h0l0,0h0l-.07,0-.07,0h0l-.06,0,.12.06.1.05-.19-.1.16.07s0,0,0,0l-.06,0,0,0a0,0,0,0,0,0,0h0l0-.06v0l0,0h0l0,0c-.07,0,0,0,0,0s.08.06.07,0-.2-.14-.07-.09l0,0,0,0,.09,0-.07-.06.07,0s-.06-.1.08,0c-.08-.05,0,0,0,0h.11s-.11-.09,0,0a.33.33,0,0,1-.06-.06l.06,0h0l0,0-.07,0,.07,0h0s0-.07,0-.07l0,0h0l0,0v0l0,0h0l0,0,0,0h0l0,0,0,0h0v0h0s0,0,0,0h0l0,0h0l0,0v0l0,0h0v0h0v0h0v0h0Zm0,.31h0l0,0,0,0Zm0-.08h0S82.78,71.23,82.79,71.23Z"/></g><path class="cls-8" d="M80,70.59a15.48,15.48,0,0,1-1.16,1.85c-4.26,5.87-13.69,9.86-20.58,11.68a39.77,39.77,0,0,1-21.18-.32c-13.76-4-24.7-15.3-27.09-29.46a60.76,60.76,0,0,1-.59-11.52c.18-7.16.92-14.57,4.54-20.75,3.48-6,9.43-10.25,15.94-12.57A50.42,50.42,0,0,1,50.29,7.22c10,.72,20.37,3.74,27,11.21,5.21,5.86,7.54,13.85,7.85,21.68s-1.22,15.61-2.9,23.27A28.2,28.2,0,0,1,80,70.59Z"/><path class="cls-9" d="M37.93,32.47c0,6.49-3.39,8.32-7.12,8.32a23,23,0,0,1-2.71-.18c-.05-5.15,0-12,0-16.5a20.39,20.39,0,0,1,2.48-.17C34.91,23.92,37.93,26,37.93,32.47Zm-3.32-.16c0-3.17-1.09-5.35-3.26-5.35,0,3.06,0,7.44,0,10.82C33.43,37.78,34.61,36.14,34.61,32.31Z"/><path class="cls-9" d="M42.12,31.94a4.34,4.34,0,0,0-2.59.95,22.61,22.61,0,0,1-.33-2.43,5.53,5.53,0,0,1,3.46-1.14c2.24,0,3.45,1.35,3.63,4.27a54.76,54.76,0,0,1-.06,7s-1.33.12-2.83.14c0,0,0-.39,0-.83a3.55,3.55,0,0,1-2.38.85,2.75,2.75,0,0,1-2.83-3.08c0-2.52,2-4.15,5.21-4.26C43.37,32.43,43,31.94,42.12,31.94Zm1.44,3.69c-1.67.09-2.46.74-2.46,1.67a.83.83,0,0,0,.91.88,2.88,2.88,0,0,0,1.55-.63C43.58,36.88,43.58,36.27,43.56,35.63Z"/><path class="cls-9" d="M50.58,40.49c-1.51,0-2.94,0-2.94,0,0-3.82-.07-11.84,0-15.9,0,0,1.5-.12,3.08-.16,0,1.46,0,3.5,0,5.7a2.78,2.78,0,0,1,2.08-.81c2,0,2.92,1.64,3.06,4.12.1,2.18.07,4.66,0,7.14,0,0-1.46,0-3,0,.07-1.93.12-5,.05-6.52-.07-1.3-.4-1.78-1.07-1.78a1.48,1.48,0,0,0-1.07.53C50.63,35.67,50.6,38.55,50.58,40.49Z"/><path class="cls-9" d="M60.78,31.94a4.35,4.35,0,0,0-2.6.95,24.17,24.17,0,0,1-.32-2.43,5.51,5.51,0,0,1,3.45-1.14c2.25,0,3.46,1.35,3.64,4.27a53.11,53.11,0,0,1-.07,7s-1.32.12-2.83.14c0,0,0-.39.05-.83a3.58,3.58,0,0,1-2.39.85,2.75,2.75,0,0,1-2.83-3.08c0-2.52,2-4.15,5.22-4.26C62,32.43,61.68,31.94,60.78,31.94Zm1.44,3.69c-1.67.09-2.46.74-2.46,1.67a.82.82,0,0,0,.9.88,2.87,2.87,0,0,0,1.56-.63C62.24,36.88,62.24,36.27,62.22,35.63Z"/><path class="cls-9" d="M25.6,47.32a2,2,0,0,1,2.11,2,1.89,1.89,0,0,1-2.13,1.92,1.84,1.84,0,0,1-2-1.95A1.87,1.87,0,0,1,25.6,47.32Zm-1.48,4.91,3.08.07c0,2.55-.07,8.07-.12,10.74-1.48.09-3,.13-3,.13C24.09,60.72,24.09,54.85,24.12,52.23Z"/><path class="cls-9" d="M36.49,52.17a76.76,76.76,0,0,1,.17,10.93c-.3,3.48-1.79,5-4.43,5a5.9,5.9,0,0,1-2.92-.83s.16-1.49.42-2.83a3.82,3.82,0,0,0,2.13.76c1.16,0,1.71-.78,1.81-2.66a2.79,2.79,0,0,1-2,.81c-2,0-2.94-1.46-3.15-4.06a42.64,42.64,0,0,1,.14-7s1.46-.07,3-.07a45.8,45.8,0,0,0-.16,6.4c.09,1.3.46,1.81,1.16,1.81a1.38,1.38,0,0,0,1.09-.6c0-2.51-.1-5.57-.28-7.79C33.46,52.05,35,52.07,36.49,52.17Z"/><path class="cls-9" d="M39.69,47.32a2,2,0,0,1,2.11,2,1.89,1.89,0,0,1-2.13,1.92,1.84,1.84,0,0,1-2-1.95A1.87,1.87,0,0,1,39.69,47.32Zm-1.48,4.91,3.08.07c0,2.55-.07,8.07-.12,10.74-1.48.09-3,.13-3,.13C38.18,60.72,38.18,54.85,38.21,52.23Z"/><path class="cls-9" d="M50.35,49.64c-.11,1.09-.23,2.55-.28,3.38,0,0,.88,0,1.77,0l-.05,2.64c-.49,0-1.16,0-1.85,0A30.42,30.42,0,0,0,50,59c.09,1.09.49,1.49,1,1.49a1.11,1.11,0,0,0,.84-.38c.41,1.28.71,2.39.71,2.39a3,3,0,0,1-2.27.91c-1.9,0-3-1.32-3.17-4-.07-1,0-2.53,0-3.78l-.86,0c-.07-1.25,0-2.53,0-2.53l1,0c.07-1,.19-2.18.3-3.2C48.87,49.71,50.35,49.64,50.35,49.64Z"/><path class="cls-9" d="M56.63,54.48a4.41,4.41,0,0,0-2.59,1A22.61,22.61,0,0,1,53.71,53a5.53,5.53,0,0,1,3.46-1.14c2.24,0,3.45,1.35,3.63,4.27a54.76,54.76,0,0,1-.06,7s-1.33.12-2.83.14c0,0,0-.39,0-.83a3.51,3.51,0,0,1-2.38.86,2.76,2.76,0,0,1-2.83-3.09c0-2.52,2-4.14,5.21-4.26C57.88,55,57.54,54.48,56.63,54.48Zm1.44,3.69c-1.67.09-2.46.74-2.46,1.67a.83.83,0,0,0,.91.88,2.88,2.88,0,0,0,1.55-.63C58.09,59.42,58.09,58.82,58.07,58.17Z"/><path class="cls-9" d="M66,49.64c-.12,1.09-.23,2.55-.28,3.38,0,0,.88,0,1.76,0l0,2.64c-.49,0-1.16,0-1.86,0a32.87,32.87,0,0,0,0,3.34c.09,1.09.48,1.49,1,1.49a1.09,1.09,0,0,0,.83-.38c.42,1.28.72,2.39.72,2.39a3,3,0,0,1-2.27.91c-1.9,0-3-1.32-3.17-4-.07-1,0-2.53,0-3.78l-.86,0c-.07-1.25-.05-2.53-.05-2.53l1,0c.07-1,.19-2.18.3-3.2C64.47,49.71,66,49.64,66,49.64Z"/><path class="cls-9" d="M69.58,50.28a.73.73,0,0,1-.78.8,1,1,0,0,1-.58-.18c0-.21.11-.44.11-.44a.73.73,0,0,0,.43.17.32.32,0,0,0,.34-.35.34.34,0,0,0-.38-.36,1.12,1.12,0,0,0-.42.07c0-.4,0-.84,0-1.28l1.12,0v.44h-.69l0,.42A.68.68,0,0,1,69.58,50.28Z"/><path class="cls-4" d="M89.14,69a22.8,22.8,0,0,1-3.71,6.81,22.33,22.33,0,0,1-5.84,5.51,10.41,10.41,0,0,0-2.89,2.13,2.54,2.54,0,0,0-.06,3.31c.85.77,2.18.52,3.24.09,3.61-1.47,6.41-4.48,8.57-7.76,2.52-3.82,4.36-8.3,4.15-12.88a2.92,2.92,0,0,0-.75-2.12C89.63,62.14,89.44,68,89.14,69Z"/><path class="cls-4" d="M68.55,5.68a22.15,22.15,0,0,1,7.51,3.44,23.67,23.67,0,0,1,6.37,6.06A11.4,11.4,0,0,0,85,18.26a2.49,2.49,0,0,0,3.47-.36c.72-1.07.33-2.59-.23-3.76-1.9-4-5.34-6.87-9-8.95C74.94,2.75,70.07,1.2,65.29,2a3,3,0,0,0-2.14,1.14C61.36,6,67.53,5.46,68.55,5.68Z"/><path class="cls-4" d="M4,26.89a22.28,22.28,0,0,1,3.35-7,22.4,22.4,0,0,1,5.57-5.83,10.38,10.38,0,0,0,2.8-2.28,2.53,2.53,0,0,0-.14-3.31c-.9-.72-2.23-.4-3.27.09-3.56,1.66-6.22,4.82-8.21,8.21C1.76,20.73.17,25.29.66,29.86a2.88,2.88,0,0,0,.88,2.08C3.89,33.73,3.74,27.85,4,26.89Z"/><path class="cls-4" d="M11.58,79.21a15.33,15.33,0,0,1-3.42-4.39,16.19,16.19,0,0,1-2-5.56,8,8,0,0,0-.58-2.59,1.69,1.69,0,0,0-2.16-.9,2.54,2.54,0,0,0-1,2.26,14.57,14.57,0,0,0,2.66,8.08,14.74,14.74,0,0,0,7.28,6.27,2,2,0,0,0,1.61,0C15.92,81.33,12.11,79.67,11.58,79.21Z"/><path class="cls-4" d="M18.36,86.2c.07.42.5.69.9.83a2.25,2.25,0,0,0,2.1-.15,1.2,1.2,0,0,0,.1-1.86c-.65-.43-1.49.08-2.26.14l.29-.23C18.93,85.18,18.27,85.59,18.36,86.2Z"/></g></g></g></svg>